<svg version="1.1" xmlns="http://www.w3.org/2000/svg" viewBox="0 0 1873.0529092490258 946.2403404226942" width="1873.0529092490258" height="946.2403404226942">
  <!-- svg-source:excalidraw -->
  
  <defs>
    <style class="style-fonts">
      @font-face {
        font-family: "Virgil";
        src: url("https://excalidraw.com/Virgil.woff2");
      }
      @font-face {
        font-family: "Cascadia";
        src: url("https://excalidraw.com/Cascadia.woff2");
      }
    </style>
    
  </defs>
  <g stroke-linecap="round" transform="translate(479.24883003401885 165.6856425418514) rotate(0 39.36454155939549 56.5)"><path d="M20.53 6.83 C25.95 1.9, 34.46 0.2, 41.13 0.51 C47.8 0.83, 55.01 3.71, 60.56 8.74 C66.11 13.76, 71.53 22.44, 74.42 30.64 C77.31 38.84, 78.32 48.56, 77.9 57.92 C77.48 67.28, 75.31 78.54, 71.89 86.78 C68.48 95.02, 63.02 103.14, 57.39 107.38 C51.77 111.63, 44.77 112.64, 38.15 112.27 C31.53 111.91, 23.21 110.25, 17.68 105.19 C12.15 100.14, 8.07 90.62, 4.98 81.96 C1.89 73.3, -0.95 62.66, -0.85 53.23 C-0.75 43.81, 1.56 33.48, 5.56 25.41 C9.57 17.34, 20.14 8.2, 23.18 4.81 C26.22 1.43, 23.52 4.06, 23.8 5.09 M48.8 2.36 C55.04 3.7, 63.16 9.49, 68.03 16.13 C72.9 22.78, 76.68 32.84, 78.03 42.24 C79.39 51.63, 78.12 63.57, 76.15 72.49 C74.17 81.42, 70.54 89.15, 66.18 95.76 C61.82 102.37, 56.21 109.86, 49.99 112.14 C43.78 114.41, 35.24 111.9, 28.89 109.43 C22.55 106.97, 16.49 103.9, 11.94 97.34 C7.39 90.77, 3.24 79.38, 1.6 70.04 C-0.04 60.7, 0.4 50.09, 2.11 41.29 C3.82 32.49, 7.2 24.04, 11.84 17.22 C16.48 10.41, 23.56 3, 29.95 0.4 C36.35 -2.2, 46.69 0.98, 50.23 1.63 C53.77 2.28, 51.59 3.56, 51.2 4.31" stroke="#1e1e1e" stroke-width="1" fill="none"></path></g><g transform="translate(500.06177014317313 212.23410940481145) rotate(0 18.71666717529297 10)"><text x="18.71666717529297" y="0" font-family="Virgil, Segoe UI Emoji" font-size="16px" fill="#1e1e1e" text-anchor="middle" style="white-space: pre;" direction="ltr" dominant-baseline="text-before-edge">0__</text></g><g stroke-linecap="round" transform="translate(237.13948150499346 358.3280450404859) rotate(0 39.36454155939549 39.3645415593955)"><path d="M36.94 -0.17 C43.62 -1.19, 53.13 1.64, 59.37 5.21 C65.61 8.78, 71.16 14.77, 74.37 21.23 C77.59 27.69, 79.47 36.79, 78.65 43.98 C77.83 51.17, 73.82 58.8, 69.43 64.37 C65.05 69.94, 58.75 75.07, 52.34 77.42 C45.92 79.77, 37.93 80.11, 30.92 78.45 C23.91 76.79, 15.24 72.65, 10.29 67.46 C5.35 62.28, 2.68 54.61, 1.28 47.34 C-0.13 40.07, -0.69 30.45, 1.87 23.84 C4.43 17.23, 10.14 11.75, 16.63 7.67 C23.11 3.6, 36.4 0.41, 40.78 -0.63 C45.16 -1.67, 43.01 0.55, 42.91 1.44 M24.09 4.12 C30.06 0.84, 38.33 -1.31, 45.18 -0.38 C52.02 0.55, 60.03 4.76, 65.15 9.69 C70.26 14.62, 73.74 22.1, 75.87 29.21 C78.01 36.32, 79.94 45.44, 77.98 52.35 C76.02 59.26, 69.69 66.24, 64.14 70.66 C58.59 75.07, 51.62 77.99, 44.68 78.85 C37.74 79.71, 29.17 78.94, 22.49 75.81 C15.81 72.68, 8.33 66.45, 4.59 60.07 C0.86 53.7, -0.51 44.62, 0.08 37.57 C0.66 30.51, 4.2 23.25, 8.09 17.74 C11.98 12.23, 20.91 6.76, 23.39 4.5 C25.87 2.24, 22.87 3.98, 22.95 4.15" stroke="#1e1e1e" stroke-width="1" fill="none"></path></g><g transform="translate(259.0607552017942 387.85765232493316) rotate(0 17.608333587646477 10)"><text x="17.608333587646484" y="0" font-family="Virgil, Segoe UI Emoji" font-size="16px" fill="#1e1e1e" text-anchor="middle" style="white-space: pre;" direction="ltr" dominant-baseline="text-before-edge">00_</text></g><g stroke-linecap="round" transform="translate(698.3664994221583 347.1805642449049) rotate(0 39.36454155939549 39.36454155939549)"><path d="M37.89 -0.39 C44.62 -0.87, 53.31 2.47, 59.36 6.18 C65.41 9.89, 70.84 15.69, 74.17 21.86 C77.5 28.04, 80.12 36.18, 79.35 43.24 C78.57 50.3, 74.34 58.65, 69.51 64.22 C64.68 69.79, 56.97 74.4, 50.36 76.66 C43.75 78.92, 36.66 79.59, 29.84 77.8 C23.02 76.01, 14.41 71.25, 9.43 65.92 C4.45 60.6, 1.06 52.81, -0.04 45.84 C-1.14 38.86, -0.04 30.67, 2.82 24.09 C5.67 17.5, 10.45 10.41, 17.07 6.35 C23.69 2.29, 37.61 0.53, 42.53 -0.28 C47.45 -1.1, 46.61 0.77, 46.6 1.45 M49.64 1.54 C56.57 3.17, 64.48 8.63, 69.44 14.16 C74.39 19.7, 78.39 27.76, 79.35 34.74 C80.32 41.73, 78.45 49.76, 75.22 56.08 C72 62.4, 65.94 68.92, 60.01 72.66 C54.08 76.4, 46.46 78.62, 39.64 78.53 C32.83 78.45, 25.31 75.96, 19.14 72.13 C12.97 68.3, 5.68 61.88, 2.61 55.55 C-0.45 49.22, -0.56 41.16, 0.72 34.13 C2 27.1, 5.98 18.58, 10.29 13.38 C14.59 8.17, 20.07 4.96, 26.56 2.9 C33.06 0.84, 45.19 0.9, 49.28 1.03 C53.36 1.15, 51.36 2.82, 51.08 3.65" stroke="#1e1e1e" stroke-width="1" fill="none"></path></g><g transform="translate(723.6211070880753 376.7101715293521) rotate(0 14.274999618530273 10)"><text x="14.274999618530273" y="0" font-family="Virgil, Segoe UI Emoji" font-size="16px" fill="#1e1e1e" text-anchor="middle" style="white-space: pre;" direction="ltr" dominant-baseline="text-before-edge">01_</text></g><g stroke-linecap="round" transform="translate(560.7647833517055 521.3599516758585) rotate(0 84.30282351658153 31.352289737571624)"><path d="M15.68 0 M15.68 0 C55.04 1.52, 90.81 1.01, 152.93 0 M15.68 0 C46.11 0.92, 77.05 0.98, 152.93 0 M152.93 0 C162.18 1.9, 169.37 4.83, 168.61 15.68 M152.93 0 C165.41 0.39, 170.62 7.44, 168.61 15.68 M168.61 15.68 C167.22 25.46, 168.25 35.06, 168.61 47.03 M168.61 15.68 C168.61 24.62, 167.55 33.6, 168.61 47.03 M168.61 47.03 C170.41 58.51, 165.11 63.9, 152.93 62.7 M168.61 47.03 C167.63 59.37, 163.45 63.82, 152.93 62.7 M152.93 62.7 C110.57 64.21, 67.61 61.03, 15.68 62.7 M152.93 62.7 C103.82 62.45, 56.41 61.48, 15.68 62.7 M15.68 62.7 C3.62 63.72, -0.17 58.52, 0 47.03 M15.68 62.7 C4.23 63.05, -1.55 58.4, 0 47.03 M0 47.03 C-0.13 40.22, -0.67 30.21, 0 15.68 M0 47.03 C0.47 36.56, -0.5 27.48, 0 15.68 M0 15.68 C-1 5.75, 5.08 1.99, 15.68 0 M0 15.68 C0.38 3.89, 4.57 1.41, 15.68 0" stroke="#1e1e1e" stroke-width="1" fill="none"></path></g><g stroke-linecap="round" transform="translate(750.2719568765829 523.4501043250299) rotate(0 84.3028235165815 35)"><path d="M17.5 0 M17.5 0 C48.22 -0.31, 78.25 0.68, 151.11 0 M17.5 0 C51.43 -0.04, 84.82 0.56, 151.11 0 M151.11 0 C163.54 -0.39, 170.37 6.17, 168.61 17.5 M151.11 0 C164.79 2.22, 168.11 5.49, 168.61 17.5 M168.61 17.5 C168.06 32.87, 168.1 43.02, 168.61 52.5 M168.61 17.5 C167.84 31.37, 169.58 45.8, 168.61 52.5 M168.61 52.5 C170.34 65.36, 161.93 71.64, 151.11 70 M168.61 52.5 C168.68 65.28, 163.06 69.2, 151.11 70 M151.11 70 C110.78 69.21, 70.56 72.6, 17.5 70 M151.11 70 C121.28 70.85, 90.26 71.54, 17.5 70 M17.5 70 C5.66 71.04, -0.87 64.47, 0 52.5 M17.5 70 C4.28 70.93, -0.62 64.39, 0 52.5 M0 52.5 C-0.62 45.5, 0.22 39.83, 0 17.5 M0 52.5 C-0.47 41.2, -0.77 30.34, 0 17.5 M0 17.5 C-0.14 7.82, 6.16 -1.16, 17.5 0 M0 17.5 C-0.66 7.24, 7.93 -1.19, 17.5 0" stroke="#1e1e1e" stroke-width="1" fill="none"></path></g><g transform="translate(773.4247788672855 528.4501043250299) rotate(0 61.150001525878906 30)"><text x="61.150001525878906" y="0" font-family="Virgil, Segoe UI Emoji" font-size="16px" fill="#1e1e1e" text-anchor="middle" style="white-space: pre;" direction="ltr" dominant-baseline="text-before-edge">011: Load store</text><text x="61.150001525878906" y="20" font-family="Virgil, Segoe UI Emoji" font-size="16px" fill="#1e1e1e" text-anchor="middle" style="white-space: pre;" direction="ltr" dominant-baseline="text-before-edge">com registrador</text><text x="61.150001525878906" y="40" font-family="Virgil, Segoe UI Emoji" font-size="16px" fill="#1e1e1e" text-anchor="middle" style="white-space: pre;" direction="ltr" dominant-baseline="text-before-edge">de índice</text></g><g stroke-linecap="round" transform="translate(1423.4241353732987 168.55460917429332) rotate(0 39.36454155939555 39.36454155939549)"><path d="M24.65 2.72 C30.67 -0.52, 38.6 -0.5, 45.5 0.84 C52.4 2.18, 60.58 6.06, 66.05 10.75 C71.52 15.44, 76.65 22.17, 78.3 28.97 C79.96 35.78, 78.4 44.82, 75.98 51.59 C73.56 58.35, 69.04 65.27, 63.79 69.58 C58.54 73.89, 51.51 76.63, 44.48 77.45 C37.46 78.27, 28.27 77.39, 21.67 74.51 C15.06 71.62, 8.57 66.08, 4.86 60.14 C1.15 54.2, -0.76 46.01, -0.6 38.85 C-0.44 31.69, 0.49 23.58, 5.85 17.18 C11.2 10.78, 25.75 3.03, 31.54 0.45 C37.33 -2.12, 40.35 1.12, 40.59 1.73 M36.07 0.3 C43.19 -0.81, 52.65 1.1, 58.9 4.6 C65.14 8.11, 70.37 15.36, 73.54 21.33 C76.71 27.3, 78.29 33.53, 77.93 40.42 C77.57 47.31, 75.58 56.9, 71.37 62.68 C67.16 68.46, 59.49 72.44, 52.68 75.09 C45.86 77.75, 37.07 79.69, 30.49 78.61 C23.91 77.53, 18.31 73.58, 13.18 68.61 C8.04 63.64, 1.51 55.68, -0.32 48.77 C-2.16 41.87, -0.23 34.14, 2.15 27.18 C4.53 20.23, 8.58 11.64, 13.97 7.03 C19.35 2.41, 30.84 0.31, 34.44 -0.52 C38.04 -1.34, 35.34 1.52, 35.55 2.06" stroke="#1e1e1e" stroke-width="1" fill="none"></path></g><g transform="translate(1447.5704094515693 198.08421645874057) rotate(0 15.383333206176758 10)"><text x="15.383333206176758" y="0" font-family="Virgil, Segoe UI Emoji" font-size="16px" fill="#1e1e1e" text-anchor="middle" style="white-space: pre;" direction="ltr" dominant-baseline="text-before-edge">1__</text></g><g stroke-linecap="round" transform="translate(1181.3147868442734 361.19701167292783) rotate(0 39.36454155939555 39.364541559395484)"><path d="M53.06 2.89 C59.46 4.95, 66.89 10.93, 71.31 16.56 C75.73 22.2, 79.32 29.66, 79.58 36.7 C79.84 43.74, 76.59 52.57, 72.88 58.78 C69.16 64.99, 63.33 70.81, 57.3 73.95 C51.26 77.09, 43.7 78.21, 36.65 77.62 C29.6 77.03, 20.85 74.5, 14.99 70.42 C9.12 66.33, 3.9 59.64, 1.46 53.09 C-0.98 46.53, -1.22 38.07, 0.35 31.08 C1.92 24.09, 5.74 16.24, 10.85 11.15 C15.96 6.06, 23.54 1.72, 30.99 0.56 C38.44 -0.59, 51.24 3.61, 55.55 4.23 C59.87 4.85, 57.26 4.01, 56.9 4.3 M38.77 0.18 C45.43 -0.47, 53.19 3.38, 58.99 6.73 C64.79 10.08, 70.31 14.17, 73.58 20.28 C76.85 26.38, 79.34 36.3, 78.61 43.38 C77.88 50.46, 73.79 57.14, 69.2 62.77 C64.6 68.41, 57.38 74.55, 51.05 77.18 C44.72 79.8, 38.17 80.24, 31.25 78.52 C24.32 76.8, 14.62 72.01, 9.52 66.88 C4.42 61.75, 1.96 54.97, 0.64 47.74 C-0.68 40.51, -0.83 30.35, 1.58 23.5 C4 16.65, 9.2 10.37, 15.12 6.65 C21.04 2.93, 33.46 2.36, 37.11 1.16 C40.75 -0.03, 36.69 -0.86, 37 -0.52" stroke="#1e1e1e" stroke-width="1" fill="none"></path></g><g transform="translate(1206.369393747251 390.7266189573751) rotate(0 14.475000381469727 10)"><text x="14.475000381469727" y="0" font-family="Virgil, Segoe UI Emoji" font-size="16px" fill="#1e1e1e" text-anchor="middle" style="white-space: pre;" direction="ltr" dominant-baseline="text-before-edge">!0_</text></g><g stroke-linecap="round" transform="translate(1642.541804761438 350.0495308773468) rotate(0 39.36454155939555 39.36454155939549)"><path d="M30.2 1.71 C36.81 -0.51, 46.51 -0.27, 53.02 1.98 C59.54 4.23, 65.17 9.65, 69.3 15.22 C73.44 20.78, 76.93 28.53, 77.84 35.37 C78.76 42.21, 78 49.98, 74.8 56.27 C71.59 62.55, 64.96 69.3, 58.62 73.08 C52.27 76.85, 43.81 79.12, 36.72 78.91 C29.62 78.71, 21.84 76.03, 16.05 71.87 C10.27 67.71, 4.61 60.64, 2 53.96 C-0.6 47.28, -1.13 38.58, 0.4 31.79 C1.93 25.01, 4.62 18.63, 11.2 13.25 C17.77 7.87, 33.64 1.54, 39.88 -0.5 C46.12 -2.54, 48.72 0.24, 48.63 1 M41.12 1.52 C47.54 1.08, 55.57 2.32, 61.37 6.23 C67.17 10.14, 73.34 18.36, 75.93 24.96 C78.52 31.56, 78.44 38.81, 76.9 45.83 C75.36 52.85, 71.2 61.64, 66.69 67.09 C62.18 72.53, 56.77 76.85, 49.86 78.48 C42.94 80.12, 32.1 79.22, 25.2 76.91 C18.29 74.61, 12.77 70.49, 8.4 64.65 C4.03 58.82, -0.12 49.25, -1.03 41.93 C-1.94 34.61, -0.43 26.65, 2.95 20.74 C6.33 14.82, 12.97 10.12, 19.26 6.44 C25.54 2.77, 36.79 -0.24, 40.66 -1.31 C44.52 -2.38, 42.49 -0.68, 42.43 0.02" stroke="#1e1e1e" stroke-width="1" fill="none"></path></g><g transform="translate(1671.129745442797 379.5791381617941) rotate(0 10.941666603088379 10)"><text x="10.941666603088379" y="0" font-family="Virgil, Segoe UI Emoji" font-size="16px" fill="#1e1e1e" text-anchor="middle" style="white-space: pre;" direction="ltr" dominant-baseline="text-before-edge">11_</text></g><g stroke-linecap="round" transform="translate(1039.5327654754774 521.7904068842672) rotate(0 84.3028235165815 31.352289737571624)"><path d="M15.68 0 M15.68 0 C66.21 1.28, 118.54 1.8, 152.93 0 M15.68 0 C69.99 0.55, 123.59 1.61, 152.93 0 M152.93 0 C161.4 -1.14, 168.01 3.36, 168.61 15.68 M152.93 0 C163.89 -1.4, 169.4 3.21, 168.61 15.68 M168.61 15.68 C169.38 26.37, 169.34 32.32, 168.61 47.03 M168.61 15.68 C168.47 24.61, 169.19 33.45, 168.61 47.03 M168.61 47.03 C168.58 59.46, 162.38 61.36, 152.93 62.7 M168.61 47.03 C168.69 57.97, 161.64 61.34, 152.93 62.7 M152.93 62.7 C124.22 61.88, 93.56 63.62, 15.68 62.7 M152.93 62.7 C102.8 61.09, 54.27 62.28, 15.68 62.7 M15.68 62.7 C4.58 60.9, 1.77 56.41, 0 47.03 M15.68 62.7 C4.23 61.09, -1.43 56.85, 0 47.03 M0 47.03 C1.91 38.05, 0.48 28.8, 0 15.68 M0 47.03 C0.36 36.87, 0.74 26.01, 0 15.68 M0 15.68 C0.06 7.1, 3.44 0.28, 15.68 0 M0 15.68 C0.15 4.2, 4.62 -2.22, 15.68 0" stroke="#1e1e1e" stroke-width="1" fill="none"></path></g><g transform="translate(1060.518923342645 533.1426966218388) rotate(0 63.31666564941412 20.000000000000014)"><text x="63.31666564941406" y="0" font-family="Virgil, Segoe UI Emoji" font-size="16px" fill="#1e1e1e" text-anchor="middle" style="white-space: pre;" direction="ltr" dominant-baseline="text-before-edge">100: Load store</text><text x="63.31666564941406" y="20" font-family="Virgil, Segoe UI Emoji" font-size="16px" fill="#1e1e1e" text-anchor="middle" style="white-space: pre;" direction="ltr" dominant-baseline="text-before-edge">Multiple</text></g><g stroke-linecap="round" transform="translate(1229.0399390003547 523.8805595334386) rotate(0 84.3028235165815 31.352289737571624)"><path d="M15.68 0 M15.68 0 C50.74 0.71, 86.61 -0.68, 152.93 0 M15.68 0 C44.35 1.32, 72.23 0.38, 152.93 0 M152.93 0 C162.79 -1.86, 169.05 4.01, 168.61 15.68 M152.93 0 C164.18 -2.01, 168.18 4.58, 168.61 15.68 M168.61 15.68 C169.56 23.21, 168.38 30.82, 168.61 47.03 M168.61 15.68 C169.54 24.87, 168.65 34.86, 168.61 47.03 M168.61 47.03 C167.61 56.13, 163.46 63.13, 152.93 62.7 M168.61 47.03 C166.86 56.12, 161.49 63.67, 152.93 62.7 M152.93 62.7 C101.95 61.33, 51.31 59.81, 15.68 62.7 M152.93 62.7 C123.21 62.83, 93.61 61.18, 15.68 62.7 M15.68 62.7 C7 61.64, -0.87 56.07, 0 47.03 M15.68 62.7 C3.79 62.08, -0.3 56.72, 0 47.03 M0 47.03 C0.09 37.72, 0.36 30.28, 0 15.68 M0 47.03 C0.78 36.58, -0.15 27.43, 0 15.68 M0 15.68 C-1.79 5.5, 5.35 -0.89, 15.68 0 M0 15.68 C-0.61 3, 3.65 -1.75, 15.68 0" stroke="#1e1e1e" stroke-width="1" fill="none"></path></g><g transform="translate(1276.3260961045826 545.2328492710102) rotate(0 37.016666412353516 10)"><text x="37.016666412353516" y="0" font-family="Virgil, Segoe UI Emoji" font-size="16px" fill="#1e1e1e" text-anchor="middle" style="white-space: pre;" direction="ltr" dominant-baseline="text-before-edge">101: Salto</text></g><g stroke-linecap="round" transform="translate(1504.9400886909852 524.2289183083005) rotate(0 84.3028235165815 31.352289737571624)"><path d="M15.68 0 M15.68 0 C62.95 -1.04, 104.68 -0.16, 152.93 0 M15.68 0 C46.35 -1.08, 78.7 -1.44, 152.93 0 M152.93 0 C163.83 -1.22, 169.3 3.48, 168.61 15.68 M152.93 0 C162.95 -0.64, 167.96 6.21, 168.61 15.68 M168.61 15.68 C168.37 26.1, 168.54 40.69, 168.61 47.03 M168.61 15.68 C168.87 26.35, 168.38 34.38, 168.61 47.03 M168.61 47.03 C168.68 57.91, 161.86 61.52, 152.93 62.7 M168.61 47.03 C166.72 58.44, 165.09 64.07, 152.93 62.7 M152.93 62.7 C125.62 61.01, 94.27 60.79, 15.68 62.7 M152.93 62.7 C117.61 62.83, 83.83 63.19, 15.68 62.7 M15.68 62.7 C4.36 61.3, -1.24 56.94, 0 47.03 M15.68 62.7 C4.93 61.94, -0.24 59.56, 0 47.03 M0 47.03 C0.59 39, 0.49 29.32, 0 15.68 M0 47.03 C-0.27 37.76, -1.2 26.75, 0 15.68 M0 15.68 C0.13 4.33, 4.7 -1.93, 15.68 0 M0 15.68 C-1.58 3.48, 6.98 -0.6, 15.68 0" stroke="#1e1e1e" stroke-width="1" fill="none"></path></g><g transform="translate(1529.2595786199204 535.5812080458721) rotate(0 59.983333587646484 20)"><text x="59.983333587646484" y="0" font-family="Virgil, Segoe UI Emoji" font-size="16px" fill="#1e1e1e" text-anchor="middle" style="white-space: pre;" direction="ltr" dominant-baseline="text-before-edge">110: Load store</text><text x="59.983333587646484" y="20" font-family="Virgil, Segoe UI Emoji" font-size="16px" fill="#1e1e1e" text-anchor="middle" style="white-space: pre;" direction="ltr" dominant-baseline="text-before-edge">Coprocessador</text></g><g stroke-linecap="round" transform="translate(1694.4472622158628 526.3190709574719) rotate(0 84.3028235165815 31.352289737571624)"><path d="M15.68 0 M15.68 0 C62.84 0.8, 112.22 -0.01, 152.93 0 M15.68 0 C61.64 -0.15, 108.41 0.17, 152.93 0 M152.93 0 C164.08 -1.75, 168.23 4.67, 168.61 15.68 M152.93 0 C162.74 0.99, 170.76 6.17, 168.61 15.68 M168.61 15.68 C168.35 23.86, 168.73 33.13, 168.61 47.03 M168.61 15.68 C168.1 24.7, 168.64 35.28, 168.61 47.03 M168.61 47.03 C167.09 56.3, 161.74 63.54, 152.93 62.7 M168.61 47.03 C170.32 58.84, 161.25 63.19, 152.93 62.7 M152.93 62.7 C110.78 59.75, 71.14 61.14, 15.68 62.7 M152.93 62.7 C102.41 60.93, 49.68 60.76, 15.68 62.7 M15.68 62.7 C3.98 62.16, -0.26 56.82, 0 47.03 M15.68 62.7 C4.98 64.79, 0.02 57.91, 0 47.03 M0 47.03 C0.45 39.15, 0.41 30.88, 0 15.68 M0 47.03 C-0.9 38.34, 0.05 28.93, 0 15.68 M0 15.68 C-0.53 3.29, 3.86 -1.52, 15.68 0 M0 15.68 C1.75 4.62, 5.72 0.2, 15.68 0" stroke="#1e1e1e" stroke-width="1" fill="none"></path></g><g transform="translate(1722.516752144798 537.6713606950435) rotate(0 56.233333587646484 20)"><text x="56.233333587646484" y="0" font-family="Virgil, Segoe UI Emoji" font-size="16px" fill="#1e1e1e" text-anchor="middle" style="white-space: pre;" direction="ltr" dominant-baseline="text-before-edge">111: Move </text><text x="56.233333587646484" y="20" font-family="Virgil, Segoe UI Emoji" font-size="16px" fill="#1e1e1e" text-anchor="middle" style="white-space: pre;" direction="ltr" dominant-baseline="text-before-edge">Coprocessador</text></g><g stroke-linecap="round" transform="translate(964.4957115383122 10) rotate(0 39.36454155939549 39.36454155939549)"><path d="M42.48 0.57 C48.96 0.49, 56.49 4.32, 62.2 8.38 C67.91 12.44, 74.17 18.28, 76.75 24.93 C79.32 31.58, 79.4 41.32, 77.63 48.27 C75.87 55.21, 71.15 61.66, 66.15 66.62 C61.15 71.58, 54.41 76.34, 47.62 78.01 C40.82 79.67, 32.16 79.07, 25.39 76.6 C18.61 74.13, 11.05 69.06, 6.97 63.2 C2.88 57.34, 1.21 48.67, 0.89 41.45 C0.56 34.23, 1.69 26.09, 5.02 19.9 C8.35 13.71, 14.42 7.45, 20.89 4.31 C27.35 1.17, 39.62 1.7, 43.83 1.05 C48.04 0.39, 46.31 -0.29, 46.14 0.36 M38.94 -0.46 C45.59 -0.97, 55.33 1.6, 61.45 5.63 C67.56 9.65, 72.77 17.1, 75.65 23.71 C78.53 30.31, 80.02 38.3, 78.74 45.25 C77.46 52.21, 72.68 60.23, 67.97 65.46 C63.27 70.68, 57.4 74.56, 50.53 76.6 C43.65 78.64, 33.52 79.83, 26.71 77.72 C19.89 75.61, 13.9 69.21, 9.63 63.92 C5.37 58.64, 2.32 52.94, 1.12 46.03 C-0.08 39.12, -0.46 29.16, 2.43 22.45 C5.32 15.75, 12.08 9.58, 18.45 5.82 C24.83 2.06, 37.33 0.89, 40.69 -0.11 C44.04 -1.11, 38.89 -0.81, 38.58 -0.17" stroke="#1e1e1e" stroke-width="1" fill="none"></path></g><g transform="translate(983.2253195856989 39.52960728444725) rotate(0 20.799999237060547 10)"><text x="20.799999237060547" y="0" font-family="Virgil, Segoe UI Emoji" font-size="16px" fill="#1e1e1e" text-anchor="middle" style="white-space: pre;" direction="ltr" dominant-baseline="text-before-edge">Início</text></g><g mask="url(#mask-WKbpWT7bfbRvXmWoZJkwm)" stroke-linecap="round"><g transform="translate(965.163419528147 49.32457062810812) rotate(0 -205.56187007320577 68.0001610676243)"><path d="M-0.29 1.06 C-68.85 23.43, -343.11 111.92, -411.74 134.08 M1.77 0.58 C-66.97 23.12, -344.34 113, -412.89 135.42" stroke="#1e1e1e" stroke-width="1" fill="none"></path></g><g transform="translate(965.163419528147 49.32457062810812) rotate(0 -205.56187007320577 68.0001610676243)"><path d="M-387.48 116.29 C-396.34 120.74, -402.86 126.13, -413.72 135.24 M-388.63 115.96 C-396.58 121.7, -403.76 128.35, -412.81 134.92" stroke="#1e1e1e" stroke-width="1" fill="none"></path></g><g transform="translate(965.163419528147 49.32457062810812) rotate(0 -205.56187007320577 68.0001610676243)"><path d="M-381.13 135.81 C-391.7 134.93, -399.96 135, -413.72 135.24 M-382.28 135.47 C-392.2 135.48, -401.24 136.41, -412.81 134.92" stroke="#1e1e1e" stroke-width="1" fill="none"></path></g></g><mask id="mask-WKbpWT7bfbRvXmWoZJkwm"><rect x="0" y="0" fill="#fff" width="1476.511169543918" height="283.78448891413495"></rect><rect x="747.1062113140847" y="94.05452977112154" fill="#000" width="24.766666412353516" height="45" opacity="1"></rect></mask><g transform="translate(747.1062113140847 94.05452977112154) rotate(0 12.49533814085649 23.270201924610888)"><text x="12.383333206176758" y="0" font-family="Virgil, Segoe UI Emoji" font-size="36px" fill="#1e1e1e" text-anchor="middle" style="white-space: pre;" direction="ltr" dominant-baseline="text-before-edge">0</text></g><g mask="url(#mask-EsqPfLUxWy0j_aTLBX5gp)" stroke-linecap="round"><g transform="translate(484.0957118825843 222.62846530787562) rotate(0 -93.75399391843067 69.72425766120224)"><path d="M-0.26 -0.75 C-31.69 22.6, -157.97 115.45, -189.31 138.93 M1.8 1.47 C-29.21 25.08, -155.35 117.42, -187.16 140.2" stroke="#1e1e1e" stroke-width="1" fill="none"></path></g><g transform="translate(484.0957118825843 222.62846530787562) rotate(0 -93.75399391843067 69.72425766120224)"><path d="M-171.62 113.56 C-175.48 121.22, -177.49 125.52, -188.48 140.09 M-170.18 115.71 C-176.07 124.56, -183.94 134.17, -187.76 140.46" stroke="#1e1e1e" stroke-width="1" fill="none"></path></g><g transform="translate(484.0957118825843 222.62846530787562) rotate(0 -93.75399391843067 69.72425766120224)"><path d="M-159.56 130.17 C-166.16 133.82, -171.07 134.13, -188.48 140.09 M-158.13 132.32 C-168.63 134.67, -181.16 137.86, -187.76 140.46" stroke="#1e1e1e" stroke-width="1" fill="none"></path></g></g><mask id="mask-EsqPfLUxWy0j_aTLBX5gp"><rect x="0" y="0" fill="#fff" width="772.339597483022" height="462.06838056745903"></rect><rect x="377.5904358761886" y="269.84842293766735" fill="#000" width="24.766666412353516" height="45" opacity="1"></rect></mask><g transform="translate(377.5904358761887 269.84842293766735) rotate(0 12.751282087964938 22.50430003141053)"><text x="12.383333206176758" y="0" font-family="Virgil, Segoe UI Emoji" font-size="36px" fill="#1e1e1e" text-anchor="middle" style="white-space: pre;" direction="ltr" dominant-baseline="text-before-edge">0</text></g><g mask="url(#mask-_gF_typtIereWPitwsxdZ)" stroke-linecap="round"><g transform="translate(550.8276713282421 229.6004610708548) rotate(0 81.40343222874941 64.04152575451337)"><path d="M-0.08 -0.06 C27.41 21.4, 137.15 106.73, 164.39 128.31 M-1.58 -1.14 C25.88 20.47, 136.63 107.26, 163.99 129.23" stroke="#1e1e1e" stroke-width="1" fill="none"></path></g><g transform="translate(550.8276713282421 229.6004610708548) rotate(0 81.40343222874941 64.04152575451337)"><path d="M135.41 121.52 C140.8 122.2, 149.84 122.9, 163.15 128.12 M135.77 120.03 C141.27 121.01, 148.54 124.65, 164.02 129.72" stroke="#1e1e1e" stroke-width="1" fill="none"></path></g><g transform="translate(550.8276713282421 229.6004610708548) rotate(0 81.40343222874941 64.04152575451337)"><path d="M148.15 105.43 C150.22 110.21, 156.01 115.02, 163.15 128.12 M148.51 103.94 C151.07 108.5, 155.49 115.74, 164.02 129.72" stroke="#1e1e1e" stroke-width="1" fill="none"></path></g></g><mask id="mask-_gF_typtIereWPitwsxdZ"><rect x="0" y="0" fill="#fff" width="814.1715720608968" height="459.0803823833251"></rect><rect x="628.7079549484299" y="276.84042172708996" fill="#000" width="7.583333492279053" height="35" opacity="1"></rect></mask><g transform="translate(628.7079549484299 276.84042172708996) rotate(0 3.5231486085615984 16.801565098278225)"><text x="3.7916667461395264" y="0" font-family="Virgil, Segoe UI Emoji" font-size="28px" fill="#1e1e1e" text-anchor="middle" style="white-space: pre;" direction="ltr" dominant-baseline="text-before-edge">1</text></g><g mask="url(#mask-Tfb7lUIllePLKuPlv4gAn)" stroke-linecap="round"><g transform="translate(1044.8433711050518 54.30456760166413) rotate(0 190.44242098082003 68.48499178241477)"><path d="M0.9 -0.31 C64.28 22.46, 317.75 114.27, 380.97 137.12 M-0.08 -1.52 C63.12 21.38, 317.04 115.27, 380.28 138.49" stroke="#1e1e1e" stroke-width="1" fill="none"></path></g><g transform="translate(1044.8433711050518 54.30456760166413) rotate(0 190.44242098082003 68.48499178241477)"><path d="M349.76 139.2 C360.45 137.79, 370.62 137.16, 378.76 139.21 M349.53 138.09 C359.54 138.94, 369.51 138.71, 381.08 137.87" stroke="#1e1e1e" stroke-width="1" fill="none"></path></g><g transform="translate(1044.8433711050518 54.30456760166413) rotate(0 190.44242098082003 68.48499178241477)"><path d="M356.86 119.94 C365.1 125.46, 372.73 131.71, 378.76 139.21 M356.63 118.84 C364.63 125.62, 372.42 131.33, 381.08 137.87" stroke="#1e1e1e" stroke-width="1" fill="none"></path></g></g><mask id="mask-Tfb7lUIllePLKuPlv4gAn"><rect x="0" y="0" fill="#fff" width="1525.3151398847722" height="291.75248407182494"></rect><rect x="1230.2042554949119" y="100.52852583674454" fill="#000" width="9.75" height="45" opacity="1"></rect></mask><g transform="translate(1230.204255494912 100.52852583674454) rotate(0 5.081536590959729 22.261033547334364)"><text x="4.875" y="0" font-family="Virgil, Segoe UI Emoji" font-size="36px" fill="#1e1e1e" text-anchor="middle" style="white-space: pre;" direction="ltr" dominant-baseline="text-before-edge">1</text></g><g mask="url(#mask-hcgu5oICY2fTV81mzAePb)" stroke-linecap="round"><g transform="translate(1427.3071386741947 225.61646349200947) rotate(0 -90.0792993948885 69.99264788761293)"><path d="M0.08 -1.05 C-29.7 22.28, -149.38 115.87, -179.63 139.48 M-1.34 1.02 C-31.14 24.59, -150.61 118.06, -180.24 141.03" stroke="#1e1e1e" stroke-width="1" fill="none"></path></g><g transform="translate(1427.3071386741947 225.61646349200947) rotate(0 -90.0792993948885 69.99264788761293)"><path d="M-166.06 116.69 C-167.86 119.35, -169.48 126.4, -179.25 142.28 M-163.61 114.65 C-170.23 125, -174.53 133.24, -180.68 140.86" stroke="#1e1e1e" stroke-width="1" fill="none"></path></g><g transform="translate(1427.3071386741947 225.61646349200947) rotate(0 -90.0792993948885 69.99264788761293)"><path d="M-153.44 132.87 C-157.95 131.99, -162.35 135.47, -179.25 142.28 M-151 130.84 C-162.04 135.63, -170.69 138.28, -180.68 140.86" stroke="#1e1e1e" stroke-width="1" fill="none"></path></g></g><mask id="mask-hcgu5oICY2fTV81mzAePb"><rect x="0" y="0" fill="#fff" width="1707.5830291169418" height="465.0563787515929"></rect><rect x="1327.5358602466447" y="277.8364211218012" fill="#000" width="19.266666412353516" height="35" opacity="1"></rect></mask><g transform="translate(1327.5358602466445 277.83642112180115) rotate(0 9.69197903266172 17.772690257821225)"><text x="9.633333206176758" y="0" font-family="Virgil, Segoe UI Emoji" font-size="28px" fill="#1e1e1e" text-anchor="middle" style="white-space: pre;" direction="ltr" dominant-baseline="text-before-edge">0</text></g><g mask="url(#mask-kNwg95tydzsl0QKbP5dyU)" stroke-linecap="round"><g transform="translate(1495.0350975145639 230.596460465566) rotate(0 82.73809486820187 63.1684291323125)"><path d="M0.57 -0.36 C28.22 20.76, 138.61 106.8, 166.07 127.94 M-0.59 -1.6 C26.95 19.66, 137.98 104.57, 165.5 126.05" stroke="#1e1e1e" stroke-width="1" fill="none"></path></g><g transform="translate(1495.0350975145639 230.596460465566) rotate(0 82.73809486820187 63.1684291323125)"><path d="M136.31 118.17 C146.77 119.68, 153.36 124.36, 165.56 125.74 M137.41 117.38 C144.21 118.83, 152.59 121.31, 166.18 127.03" stroke="#1e1e1e" stroke-width="1" fill="none"></path></g><g transform="translate(1495.0350975145639 230.596460465566) rotate(0 82.73809486820187 63.1684291323125)"><path d="M148.84 101.92 C155.51 108.61, 158.15 118.42, 165.56 125.74 M149.94 101.13 C153.13 107.35, 157.89 114.52, 166.18 127.03" stroke="#1e1e1e" stroke-width="1" fill="none"></path></g></g><mask id="mask-kNwg95tydzsl0QKbP5dyU"><rect x="0" y="0" fill="#fff" width="1760.3709970366413" height="458.0843829886137"></rect><rect x="1573.9113805294633" y="276.84042172708985" fill="#000" width="7.583333492279053" height="35" opacity="1"></rect></mask><g transform="translate(1573.911380529463 276.84042172708985) rotate(0 3.8618118533026973 16.924467870788646)"><text x="3.7916667461395264" y="0" font-family="Virgil, Segoe UI Emoji" font-size="28px" fill="#1e1e1e" text-anchor="middle" style="white-space: pre;" direction="ltr" dominant-baseline="text-before-edge">1</text></g><g mask="url(#mask-uWg7x1gpSXUxPWhZl8_Yj)" stroke-linecap="round"><g transform="translate(1657.3829988525074 423.82034303956004) rotate(0 -36.0136654321924 49.89229712845852)"><path d="M0.8 -0.02 C-11.09 16.73, -59.74 82.81, -72.16 99.77 M-0.24 -1.08 C-12.17 15.86, -60.97 84.02, -72.83 100.87" stroke="#1e1e1e" stroke-width="1" fill="none"></path></g><g transform="translate(1657.3829988525074 423.82034303956004) rotate(0 -36.0136654321924 49.89229712845852)"><path d="M-64.9 72.85 C-68.27 77.02, -66.83 87.17, -72.73 100.31 M-64.12 71.75 C-66.11 78.47, -69 85.98, -73.75 99.88" stroke="#1e1e1e" stroke-width="1" fill="none"></path></g><g transform="translate(1657.3829988525074 423.82034303956004) rotate(0 -36.0136654321924 49.89229712845852)"><path d="M-48.17 84.74 C-55.34 86.27, -57.78 93.66, -72.73 100.31 M-47.39 83.64 C-53.29 87.6, -60.19 92.26, -73.75 99.88" stroke="#1e1e1e" stroke-width="1" fill="none"></path></g></g><mask id="mask-uWg7x1gpSXUxPWhZl8_Yj"><rect x="0" y="0" fill="#fff" width="1830.090954666433" height="624.4162819054025"></rect><rect x="1611.3956877393682" y="456.6183124724812" fill="#000" width="19.266666412353516" height="35" opacity="1"></rect></mask><g transform="translate(1611.395687739368 456.6183124724812) rotate(0 9.973645680947016 17.094327695537345)"><text x="9.633333206176758" y="0" font-family="Virgil, Segoe UI Emoji" font-size="28px" fill="#1e1e1e" text-anchor="middle" style="white-space: pre;" direction="ltr" dominant-baseline="text-before-edge">0</text></g><g mask="url(#mask-9Wos1SksTPrmvtgOiPJRl)" stroke-linecap="round"><g transform="translate(1705.1909697986503 423.82034303956004) rotate(0 36.71990157521145 51.88798027093638)"><path d="M-0.6 1 C11.37 18.21, 59.48 86.36, 71.8 103.3 M1.28 0.47 C13.63 17.34, 62.1 84.29, 74.04 101.55" stroke="#1e1e1e" stroke-width="1" fill="none"></path></g><g transform="translate(1705.1909697986503 423.82034303956004) rotate(0 36.71990157521145 51.88798027093638)"><path d="M51.01 83 C57.87 90.79, 64.14 96.34, 74.3 101.23 M48.75 83.8 C55.82 88.56, 62.87 94.27, 74.67 101.97" stroke="#1e1e1e" stroke-width="1" fill="none"></path></g><g transform="translate(1705.1909697986503 423.82034303956004) rotate(0 36.71990157521145 51.88798027093638)"><path d="M67.74 71.12 C69.64 82.35, 70.95 91.42, 74.3 101.23 M65.48 71.92 C67.71 80, 69.99 89.1, 74.67 101.97" stroke="#1e1e1e" stroke-width="1" fill="none"></path></g></g><mask id="mask-9Wos1SksTPrmvtgOiPJRl"><rect x="0" y="0" fill="#fff" width="1877.898925612576" height="626.408280694825"></rect><rect x="1737.7532809594736" y="457.61431186719255" fill="#000" width="7.583333492279053" height="35" opacity="1"></rect></mask><g transform="translate(1737.7532809594736 457.61431186719255) rotate(0 4.157590414388096 18.0940114433039)"><text x="3.7916667461395264" y="0" font-family="Virgil, Segoe UI Emoji" font-size="28px" fill="#1e1e1e" text-anchor="middle" style="white-space: pre;" direction="ltr" dominant-baseline="text-before-edge">1</text></g><g mask="url(#mask-UkubbBfKKdzvBqVnme6Cy)" stroke-linecap="round"><g transform="translate(1194.2432803117483 425.81234182898265) rotate(0 -33.13636506727664 48.2642039223021)"><path d="M0.94 0.03 C-10.01 16.18, -55.47 79.95, -66.77 96.2 M-0.02 -1 C-10.96 15.38, -56.02 81.41, -67.21 97.52" stroke="#1e1e1e" stroke-width="1" fill="none"></path></g><g transform="translate(1194.2432803117483 425.81234182898265) rotate(0 -33.13636506727664 48.2642039223021)"><path d="M-59.65 70.08 C-62.15 76.17, -61.49 81.89, -67.05 98.49 M-59.1 67.71 C-60.94 76.86, -63.64 84.8, -67.25 98.47" stroke="#1e1e1e" stroke-width="1" fill="none"></path></g><g transform="translate(1194.2432803117483 425.81234182898265) rotate(0 -33.13636506727664 48.2642039223021)"><path d="M-42.74 81.7 C-48.77 85.45, -51.72 88.69, -67.05 98.49 M-42.18 79.33 C-48.86 85.26, -56.33 89.93, -67.25 98.47" stroke="#1e1e1e" stroke-width="1" fill="none"></path></g></g><mask id="mask-UkubbBfKKdzvBqVnme6Cy"><rect x="0" y="0" fill="#fff" width="1361.9712391521175" height="622.4242831159797"></rect><rect x="1150.745967685387" y="456.6183124724812" fill="#000" width="19.266666412353516" height="35" opacity="1"></rect></mask><g transform="translate(1150.7459676853869 456.6183124724812) rotate(0 10.36094755908482 17.458233278803533)"><text x="9.633333206176758" y="0" font-family="Virgil, Segoe UI Emoji" font-size="28px" fill="#1e1e1e" text-anchor="middle" style="white-space: pre;" direction="ltr" dominant-baseline="text-before-edge">0</text></g><g mask="url(#mask-s9-Bk-Odg0cn3H35gh8bL)" stroke-linecap="round"><g transform="translate(1244.0432500473137 435.77233577609576) rotate(0 31.278423296266055 45.80666081422942)"><path d="M0.72 0.39 C11.01 15.8, 52.83 76.95, 62.91 92.06 M-0.35 -0.44 C9.78 14.62, 52.48 74.75, 62.57 90.16" stroke="#1e1e1e" stroke-width="1" fill="none"></path></g><g transform="translate(1244.0432500473137 435.77233577609576) rotate(0 31.278423296266055 45.80666081422942)"><path d="M38.83 74.64 C48.53 78.61, 56.5 84.87, 61 91.29 M37.26 71.92 C47.73 80.72, 57.28 86.87, 61.87 90.41" stroke="#1e1e1e" stroke-width="1" fill="none"></path></g><g transform="translate(1244.0432500473137 435.77233577609576) rotate(0 31.278423296266055 45.80666081422942)"><path d="M55.75 63.04 C58.69 71.73, 59.92 82.61, 61 91.29 M54.19 60.31 C57.88 73.56, 60.73 84.3, 61.87 90.41" stroke="#1e1e1e" stroke-width="1" fill="none"></path></g></g><mask id="mask-s9-Bk-Odg0cn3H35gh8bL"><rect x="0" y="0" fill="#fff" width="1405.795212519415" height="627.4042800895363"></rect><rect x="1271.1275645372245" y="464.088307932816" fill="#000" width="7.583333492279053" height="35" opacity="1"></rect></mask><g transform="translate(1271.1275645372248 464.088307932816) rotate(0 4.194108806354961 17.490688657509168)"><text x="3.7916667461395264" y="0" font-family="Virgil, Segoe UI Emoji" font-size="28px" fill="#1e1e1e" text-anchor="middle" style="white-space: pre;" direction="ltr" dominant-baseline="text-before-edge">1</text></g><g mask="url(#mask-fG9vtviIzIgMnUGZBgwT0)" stroke-linecap="round"><g transform="translate(766.9595399805962 417.84434667129227) rotate(0 31.793879596671957 49.394337949092176)"><path d="M1.17 0.55 C11.61 16.96, 53.1 81.4, 63.26 97.51 M0.33 -0.2 C10.59 16.49, 52.46 82.57, 62.58 98.99" stroke="#1e1e1e" stroke-width="1" fill="none"></path></g><g transform="translate(766.9595399805962 417.84434667129227) rotate(0 31.793879596671957 49.394337949092176)"><path d="M39.85 81.38 C47 85.79, 54.91 91.5, 63.89 100.76 M38.35 79.67 C46.82 87.99, 57.04 94.4, 63.27 99.78" stroke="#1e1e1e" stroke-width="1" fill="none"></path></g><g transform="translate(766.9595399805962 417.84434667129227) rotate(0 31.793879596671957 49.394337949092176)"><path d="M57.24 70.5 C58.14 78.93, 59.88 88.5, 63.89 100.76 M55.75 68.78 C57.93 81.02, 61.76 91.42, 63.27 99.78" stroke="#1e1e1e" stroke-width="1" fill="none"></path></g></g><mask id="mask-fG9vtviIzIgMnUGZBgwT0"><rect x="0" y="0" fill="#fff" width="929.7075018474088" height="615.4522873530007"></rect><rect x="794.541854167863" y="449.1483170121465" fill="#000" width="7.583333492279053" height="35" opacity="1"></rect></mask><g transform="translate(794.541854167863 449.14831701214644) rotate(0 4.211565409405182 18.09036760823801)"><text x="3.7916667461395264" y="0" font-family="Virgil, Segoe UI Emoji" font-size="28px" fill="#1e1e1e" text-anchor="middle" style="white-space: pre;" direction="ltr" dominant-baseline="text-before-edge">1</text></g><g mask="url(#mask-ohbkDPcIMwt7wAnVhrMgu)" stroke-linecap="round"><g transform="translate(710.1875744820516 412.8643496977357) rotate(0 -30.486981010275457 53.63864340209547)"><path d="M0.1 1.06 C-9.85 19, -50.14 89.37, -60 106.71 M-1.3 0.57 C-11.41 18.28, -51.38 87.59, -61.08 105.19" stroke="#1e1e1e" stroke-width="1" fill="none"></path></g><g transform="translate(710.1875744820516 412.8643496977357) rotate(0 -30.486981010275457 53.63864340209547)"><path d="M-54.37 75.19 C-55.84 84.92, -59.92 91.06, -60.02 106.2 M-55.81 74.66 C-57.64 83.34, -59.2 89.4, -61.52 105.39" stroke="#1e1e1e" stroke-width="1" fill="none"></path></g><g transform="translate(710.1875744820516 412.8643496977357) rotate(0 -30.486981010275457 53.63864340209547)"><path d="M-36.5 85.3 C-42.85 92.24, -51.89 95.58, -60.02 106.2 M-37.95 84.76 C-44.13 90.87, -50.03 94.47, -61.52 105.39" stroke="#1e1e1e" stroke-width="1" fill="none"></path></g></g><mask id="mask-ohbkDPcIMwt7wAnVhrMgu"><rect x="0" y="0" fill="#fff" width="869.9475381647301" height="618.4402855371345"></rect><rect x="670.6742594345355" y="448.15231761743513" fill="#000" width="19.266666412353516" height="35" opacity="1"></rect></mask><g transform="translate(670.6742594345355 448.15231761743513) rotate(0 9.02633403724056 18.350675482396028)"><text x="9.633333206176758" y="0" font-family="Virgil, Segoe UI Emoji" font-size="28px" fill="#1e1e1e" text-anchor="middle" style="white-space: pre;" direction="ltr" dominant-baseline="text-before-edge">0</text></g><g mask="url(#mask-TD9P8SB8QGIGx6hZGJ1SR)" stroke-linecap="round"><g transform="translate(224.98055384778615 404.31309643157005) rotate(0 -56.95952245413551 100.50072430635063)"><path d="M0.53 -1.13 C-18.69 32.25, -95.52 167.15, -114.45 200.8 M-0.65 0.88 C-19.58 34.39, -93.4 168.63, -112.22 202.14" stroke="#1e1e1e" stroke-width="1" fill="none"></path></g><g transform="translate(224.98055384778615 404.31309643157005) rotate(0 -56.95952245413551 100.50072430635063)"><path d="M-109.4 170.99 C-109.79 184.44, -111.55 195.83, -113.86 203.62 M-108.38 172.95 C-109.06 178.84, -110.45 187.08, -113.2 201.7" stroke="#1e1e1e" stroke-width="1" fill="none"></path></g><g transform="translate(224.98055384778615 404.31309643157005) rotate(0 -56.95952245413551 100.50072430635063)"><path d="M-91.45 180.95 C-98.61 190.75, -107.09 198.42, -113.86 203.62 M-90.44 182.92 C-95.55 186.42, -101.32 192.23, -113.2 201.7" stroke="#1e1e1e" stroke-width="1" fill="none"></path></g></g><mask id="mask-TD9P8SB8QGIGx6hZGJ1SR"><rect x="0" y="0" fill="#fff" width="438.5244848448755" height="705.5049741632547"></rect><rect x="155.82525514306474" y="482.40903529741234" fill="#000" width="24.766666412353516" height="45" opacity="1"></rect></mask><g transform="translate(155.82525514306474 482.4090352974124) rotate(0 12.195776250585908 22.404785440508277)"><text x="12.383333206176758" y="0" font-family="Virgil, Segoe UI Emoji" font-size="36px" fill="#1e1e1e" text-anchor="middle" style="white-space: pre;" direction="ltr" dominant-baseline="text-before-edge">0</text></g><g mask="url(#mask-NMkCix6L9CYcbrfXhFo2k)" stroke-linecap="round"><g transform="translate(310.79181720281633 420.83234485542624) rotate(0 24.21069353680612 42.61499279849173)"><path d="M-0.78 -0.32 C7.14 14.09, 38.65 72.55, 46.94 86.77 M1.01 -1.54 C9.36 12.54, 41.23 70.65, 49.2 85.23" stroke="#1e1e1e" stroke-width="1" fill="none"></path></g><g transform="translate(310.79181720281633 420.83234485542624) rotate(0 24.21069353680612 42.61499279849173)"><path d="M26.11 64.01 C34.22 72.56, 36.88 73.71, 48.41 86.06 M25.95 65.15 C33.68 70.11, 38.19 75.61, 50.1 84.3" stroke="#1e1e1e" stroke-width="1" fill="none"></path></g><g transform="translate(310.79181720281633 420.83234485542624) rotate(0 24.21069353680612 42.61499279849173)"><path d="M44.1 54.14 C47.71 65.06, 45.85 68.68, 48.41 86.06 M43.94 55.28 C46.83 62.92, 46.45 71.11, 50.1 84.3" stroke="#1e1e1e" stroke-width="1" fill="none"></path></g></g><mask id="mask-NMkCix6L9CYcbrfXhFo2k"><rect x="0" y="0" fill="#fff" width="458.5997881489592" height="606.4882928005989"></rect><rect x="330.90413592974824" y="446.1603188280125" fill="#000" width="7.583333492279053" height="35" opacity="1"></rect></mask><g transform="translate(330.90413592974824 446.1603188280126) rotate(0 4.098374809874215 17.287018825905392)"><text x="3.7916667461395264" y="0" font-family="Virgil, Segoe UI Emoji" font-size="28px" fill="#1e1e1e" text-anchor="middle" style="white-space: pre;" direction="ltr" dominant-baseline="text-before-edge">1</text></g><g transform="translate(607.5996368267865 545.3322691943397) rotate(0 39.05833435058594 10)"><text x="0" y="0" font-family="Virgil, Segoe UI Emoji" font-size="16px" fill="#1e1e1e" text-anchor="start" style="white-space: pre;" direction="ltr" dominant-baseline="text-before-edge">010 NADA</text></g><g stroke-linecap="round" transform="translate(275.29296402708866 514.9759788514795) rotate(0 84.3028235165815 31.352289737571624)"><path d="M15.68 0 M15.68 0 C63.01 -0.58, 109.19 1.21, 152.93 0 M15.68 0 C53.18 -0.54, 90.33 0.29, 152.93 0 M152.93 0 C163.75 -0.7, 169.26 6.64, 168.61 15.68 M152.93 0 C164.29 -2.25, 170.87 4.45, 168.61 15.68 M168.61 15.68 C169.34 23.85, 170.22 32.74, 168.61 47.03 M168.61 15.68 C169.22 26.09, 168.24 36.15, 168.61 47.03 M168.61 47.03 C169.08 57.15, 163.32 61.17, 152.93 62.7 M168.61 47.03 C169.25 55.71, 162.6 63.51, 152.93 62.7 M152.93 62.7 C99.32 62.64, 44.17 61.47, 15.68 62.7 M152.93 62.7 C109.11 62.06, 64.37 62.16, 15.68 62.7 M15.68 62.7 C5.6 62.87, -0.8 59.24, 0 47.03 M15.68 62.7 C7.33 61.3, 2.02 59.19, 0 47.03 M0 47.03 C0.39 34.94, 1.34 24.38, 0 15.68 M0 47.03 C0.34 36.54, -0.79 24.58, 0 15.68 M0 15.68 C1.93 6.12, 4.22 -0.34, 15.68 0 M0 15.68 C1.66 4.15, 7.45 -1.24, 15.68 0" stroke="#1e1e1e" stroke-width="1" fill="none"></path></g><g transform="translate(324.74578906954906 536.328268589051) rotate(0 34.849998474121094 10)"><text x="34.849998474121094" y="0" font-family="Virgil, Segoe UI Emoji" font-size="16px" fill="#1e1e1e" text-anchor="middle" style="white-space: pre;" direction="ltr" dominant-baseline="text-before-edge">001: ALU</text></g><g stroke-linecap="round" transform="translate(10 626.0082201659557) rotate(0 117.02992887857891 70)"><path d="M147.5 17.75 M147.5 17.75 C169.95 33.56, 191.99 48.14, 204.56 53.25 M147.5 17.75 C160.66 26.39, 175.81 34.59, 204.56 53.25 M204.56 53.25 C234.06 72.93, 235.73 70.51, 204.56 88.75 M204.56 53.25 C231.96 69.62, 234.31 69.48, 204.56 88.75 M204.56 88.75 C183.91 98.36, 165.58 112.99, 147.5 122.25 M204.56 88.75 C183.29 100.41, 160.89 113.53, 147.5 122.25 M147.5 122.25 C118.55 138.38, 117.08 138.69, 88.5 122.25 M147.5 122.25 C116.76 138.82, 119.24 138.28, 88.5 122.25 M88.5 122.25 C73.93 112.91, 61.95 105.96, 29.5 88.75 M88.5 122.25 C71.84 113.45, 54.16 102.43, 29.5 88.75 M29.5 88.75 C0.34 72.74, -1.69 71.75, 29.5 53.25 M29.5 88.75 C1.05 68.75, 0.17 70.55, 29.5 53.25 M29.5 53.25 C49.57 43.3, 67.19 28.75, 88.5 17.75 M29.5 53.25 C47.81 40.71, 67.44 29.82, 88.5 17.75 M88.5 17.75 C118.05 0.09, 119.22 -0.48, 147.5 17.75 M88.5 17.75 C118.88 -1.11, 118.43 -0.38, 147.5 17.75" stroke="#1e1e1e" stroke-width="1" fill="none"></path></g><g transform="translate(75.53996596516836 666.0082201659557) rotate(0 51.474998474121094 30)"><text x="51.474998474121094" y="0" font-family="Virgil, Segoe UI Emoji" font-size="16px" fill="#1e1e1e" text-anchor="middle" style="white-space: pre;" direction="ltr" dominant-baseline="text-before-edge">Bits 11, 10, 9,</text><text x="51.474998474121094" y="20" font-family="Virgil, Segoe UI Emoji" font-size="16px" fill="#1e1e1e" text-anchor="middle" style="white-space: pre;" direction="ltr" dominant-baseline="text-before-edge">8 e 7 = </text><text x="51.474998474121094" y="40" font-family="Virgil, Segoe UI Emoji" font-size="16px" fill="#1e1e1e" text-anchor="middle" style="white-space: pre;" direction="ltr" dominant-baseline="text-before-edge">0b00001?</text></g><g transform="translate(171.35190194323195 752.500143294292) rotate(0 32.369980328117606 7.4699954603348715)" stroke="none"><path fill="#2f9e44" d="M 2.14,-0.35 Q 2.14,-0.35 2.41,1.36 2.67,3.08 3.57,5.69 4.47,8.30 4.93,10.15 5.38,11.99 6.53,11.91 7.68,11.82 8.97,11.49 10.26,11.16 14.03,10.29 17.80,9.42 20.26,8.81 22.73,8.20 28.78,7.37 34.83,6.55 37.64,6.23 40.46,5.91 45.62,4.94 50.78,3.97 54.72,3.28 58.66,2.59 60.14,2.02 61.63,1.45 61.34,0.90 61.06,0.34 61.05,0.07 61.04,-0.20 61.11,-0.47 61.19,-0.74 61.35,-0.97 61.51,-1.19 61.73,-1.36 61.96,-1.53 62.22,-1.61 62.49,-1.70 62.76,-1.69 63.04,-1.69 63.31,-1.60 63.57,-1.50 63.79,-1.33 64.01,-1.16 64.16,-0.93 64.31,-0.70 64.38,-0.43 64.46,-0.16 64.44,0.11 64.42,0.39 64.31,0.64 64.21,0.90 64.02,1.11 63.84,1.32 63.60,1.46 63.36,1.60 63.09,1.66 62.81,1.71 62.54,1.68 62.26,1.65 62.01,1.53 61.76,1.41 61.56,1.21 61.36,1.02 61.23,0.77 61.11,0.52 61.06,0.25 61.02,-0.02 61.07,-0.29 61.12,-0.57 61.25,-0.81 61.39,-1.05 61.59,-1.24 61.80,-1.43 62.05,-1.54 62.30,-1.66 62.58,-1.68 62.86,-1.71 63.13,-1.65 63.40,-1.58 63.64,-1.44 63.87,-1.29 64.05,-1.08 64.23,-0.86 64.33,-0.60 64.43,-0.34 64.43,-0.34 64.43,-0.34 63.67,1.96 62.91,4.27 61.05,4.89 59.20,5.50 55.28,6.24 51.37,6.99 46.13,8.06 40.89,9.12 38.11,9.55 35.33,9.98 29.56,10.91 23.78,11.83 21.33,12.65 18.89,13.47 15.14,14.62 11.40,15.77 9.82,16.15 8.24,16.53 6.30,16.53 4.37,16.54 3.44,15.84 2.52,15.15 1.98,14.07 1.43,13.00 1.11,11.54 0.79,10.08 -0.36,6.93 -1.53,3.78 -1.84,2.07 -2.14,0.35 -2.16,0.09 -2.17,-0.16 -2.12,-0.42 -2.06,-0.68 -1.95,-0.91 -1.84,-1.15 -1.68,-1.36 -1.51,-1.56 -1.30,-1.72 -1.09,-1.88 -0.85,-1.98 -0.61,-2.09 -0.35,-2.13 -0.09,-2.17 0.16,-2.15 0.42,-2.13 0.67,-2.05 0.92,-1.97 1.14,-1.83 1.37,-1.69 1.55,-1.50 1.73,-1.31 1.86,-1.08 2.00,-0.86 2.07,-0.61 2.14,-0.35 2.14,-0.35 L 2.14,-0.35 Z"></path></g><g transform="translate(254.01985170427076 645.9282080601819) rotate(0 10.95599334182441 11.45399303918009)" stroke="none"><path fill="#e03131" d="M 1.28,-1.44 Q 1.28,-1.44 3.80,0.91 6.32,3.26 9.72,6.90 13.11,10.55 15.71,13.85 18.30,17.16 20.71,19.42 23.12,21.67 23.29,21.90 23.45,22.13 23.54,22.39 23.62,22.66 23.61,22.94 23.61,23.22 23.51,23.48 23.42,23.75 23.24,23.97 23.07,24.19 22.83,24.34 22.60,24.49 22.33,24.56 22.06,24.63 21.78,24.61 21.50,24.58 21.24,24.48 20.98,24.37 20.77,24.18 20.56,23.99 20.42,23.75 20.29,23.51 20.23,23.23 20.18,22.96 20.21,22.68 20.25,22.40 20.37,22.15 20.50,21.90 20.69,21.70 20.89,21.50 21.14,21.38 21.39,21.25 21.67,21.21 21.95,21.17 22.22,21.22 22.50,21.28 22.74,21.41 22.99,21.55 23.17,21.76 23.36,21.96 23.47,22.22 23.58,22.48 23.61,22.76 23.63,23.04 23.57,23.31 23.50,23.58 23.35,23.82 23.20,24.05 22.98,24.23 22.77,24.41 22.50,24.50 22.24,24.60 21.96,24.61 21.68,24.62 21.41,24.54 21.14,24.46 20.92,24.29 20.69,24.13 20.69,24.13 20.69,24.13 18.28,21.62 15.88,19.10 13.31,15.96 10.73,12.81 7.35,9.35 3.98,5.89 1.35,3.67 -1.28,1.44 -1.43,1.26 -1.58,1.09 -1.69,0.88 -1.80,0.68 -1.86,0.45 -1.91,0.22 -1.91,-0.00 -1.91,-0.23 -1.85,-0.46 -1.80,-0.68 -1.69,-0.89 -1.58,-1.09 -1.43,-1.27 -1.27,-1.44 -1.08,-1.57 -0.89,-1.70 -0.67,-1.79 -0.45,-1.87 -0.22,-1.90 0.00,-1.92 0.23,-1.90 0.46,-1.87 0.68,-1.78 0.89,-1.70 1.09,-1.57 1.28,-1.44 1.28,-1.44 L 1.28,-1.44 Z"></path></g><g transform="translate(258.99984867782723 673.8161911120985) rotate(0 11.951992736535715 -20.417987591581834)" stroke="none"><path fill="#e03131" d="M -1.74,-0.96 Q -1.74,-0.96 1.19,-6.07 4.14,-11.18 6.28,-14.78 8.42,-18.38 11.69,-22.56 14.97,-26.75 16.64,-28.77 18.31,-30.79 19.52,-33.22 20.72,-35.66 21.15,-37.02 21.57,-38.38 21.85,-39.84 22.13,-41.29 22.25,-41.57 22.37,-41.84 22.57,-42.05 22.77,-42.27 23.03,-42.42 23.29,-42.56 23.58,-42.61 23.87,-42.66 24.17,-42.62 24.46,-42.58 24.72,-42.44 24.99,-42.31 25.19,-42.09 25.40,-41.88 25.53,-41.61 25.66,-41.35 25.69,-41.05 25.73,-40.76 25.67,-40.47 25.61,-40.18 25.46,-39.92 25.31,-39.67 25.09,-39.47 24.87,-39.28 24.59,-39.16 24.32,-39.05 24.02,-39.03 23.73,-39.01 23.44,-39.08 23.15,-39.16 22.91,-39.32 22.66,-39.48 22.48,-39.72 22.29,-39.95 22.19,-40.23 22.10,-40.51 22.09,-40.80 22.09,-41.10 22.18,-41.38 22.27,-41.67 22.44,-41.90 22.62,-42.14 22.86,-42.31 23.11,-42.48 23.39,-42.57 23.67,-42.65 23.97,-42.64 24.27,-42.63 24.54,-42.52 24.82,-42.41 25.05,-42.23 25.28,-42.04 25.43,-41.79 25.59,-41.53 25.66,-41.25 25.73,-40.96 25.70,-40.66 25.67,-40.37 25.67,-40.37 25.67,-40.37 25.15,-38.78 24.63,-37.19 23.98,-35.79 23.33,-34.38 22.00,-31.65 20.67,-28.92 19.07,-26.87 17.47,-24.82 14.40,-20.76 11.33,-16.71 9.32,-13.07 7.31,-9.42 4.52,-4.22 1.74,0.96 1.60,1.16 1.46,1.35 1.27,1.51 1.09,1.66 0.87,1.77 0.66,1.88 0.42,1.93 0.19,1.98 -0.04,1.97 -0.28,1.97 -0.51,1.91 -0.75,1.84 -0.96,1.73 -1.17,1.61 -1.34,1.45 -1.52,1.28 -1.65,1.08 -1.78,0.88 -1.86,0.65 -1.94,0.43 -1.97,0.19 -1.99,-0.04 -1.95,-0.28 -1.92,-0.52 -1.83,-0.74 -1.74,-0.96 -1.74,-0.96 L -1.74,-0.96 Z"></path></g><g stroke-linecap="round"><g transform="translate(126.53192918122306 764.4521360308278) rotate(0 -0.3905611861778535 52.66569863898815)"><path d="M1.14 0.08 C1.09 17.56, -0.82 87.1, -1.32 104.67 M0.28 -0.92 C0.22 16.79, -1.45 88.83, -1.92 106.26" stroke="#1e1e1e" stroke-width="1" fill="none"></path></g><g transform="translate(126.53192918122306 764.4521360308278) rotate(0 -0.3905611861778535 52.66569863898815)"><path d="M-11.36 78.94 C-9.35 84.02, -5.93 89.08, -2.16 106.78 M-11.87 77.77 C-9.57 84.27, -7.96 89.88, -2.07 105.71" stroke="#1e1e1e" stroke-width="1" fill="none"></path></g><g transform="translate(126.53192918122306 764.4521360308278) rotate(0 -0.3905611861778535 52.66569863898815)"><path d="M9.16 79.44 C6.79 84.61, 5.83 89.56, -2.16 106.78 M8.65 78.28 C6.59 84.71, 3.84 90.21, -2.07 105.71" stroke="#1e1e1e" stroke-width="1" fill="none"></path></g></g><mask></mask><g stroke-linecap="round" transform="translate(41.233106269930204 873.5357609475509) rotate(0 84.3028235165815 31.352289737571652)"><path d="M15.68 0 M15.68 0 C64.78 -1.74, 117.13 -1.03, 152.93 0 M15.68 0 C58.68 0.89, 102.46 0.94, 152.93 0 M152.93 0 C163.09 -1.9, 167.52 4.23, 168.61 15.68 M152.93 0 C163.47 -1.95, 167.49 5.82, 168.61 15.68 M168.61 15.68 C166.94 23.42, 168.14 29.56, 168.61 47.03 M168.61 15.68 C168.4 27.23, 167.67 39.33, 168.61 47.03 M168.61 47.03 C168.28 55.61, 165.05 63.56, 152.93 62.7 M168.61 47.03 C168.44 59.37, 161.94 64.01, 152.93 62.7 M152.93 62.7 C107.59 63.09, 64.06 61.3, 15.68 62.7 M152.93 62.7 C113.22 62.98, 73.99 63.58, 15.68 62.7 M15.68 62.7 C5.13 63.37, -1.7 56.07, 0 47.03 M15.68 62.7 C7.47 63.9, -1.92 56.85, 0 47.03 M0 47.03 C-0.94 35.71, -1.53 22.18, 0 15.68 M0 47.03 C0.2 37.31, -0.02 25.1, 0 15.68 M0 15.68 C-1.99 7.09, 3.68 0.9, 15.68 0 M0 15.68 C-0.63 6.68, 4.93 2.19, 15.68 0" stroke="#1e1e1e" stroke-width="1" fill="none"></path></g><g transform="translate(54.36092673475389 884.8880506851225) rotate(0 71.17500305175781 20)"><text x="71.17500305175781" y="0" font-family="Virgil, Segoe UI Emoji" font-size="16px" fill="#1e1e1e" text-anchor="middle" style="white-space: pre;" direction="ltr" dominant-baseline="text-before-edge">000: Load/Store </text><text x="71.17500305175781" y="20" font-family="Virgil, Segoe UI Emoji" font-size="16px" fill="#1e1e1e" text-anchor="middle" style="white-space: pre;" direction="ltr" dominant-baseline="text-before-edge">Half</text></g><g stroke-linecap="round" transform="translate(333.06092892034405 665.1537362285699) rotate(0 84.3028235165815 31.352289737571624)"><path d="M15.68 0 M15.68 0 C47.53 0.12, 78.77 0.02, 152.93 0 M15.68 0 C54.91 1.26, 92.18 1.35, 152.93 0 M152.93 0 C163.84 1.39, 170.09 5.11, 168.61 15.68 M152.93 0 C165.31 0.43, 167.28 6.96, 168.61 15.68 M168.61 15.68 C167.85 24.92, 168.83 30.54, 168.61 47.03 M168.61 15.68 C167.64 26.26, 167.67 38.17, 168.61 47.03 M168.61 47.03 C168.26 59.22, 164.53 62.14, 152.93 62.7 M168.61 47.03 C168.37 56.43, 161.64 60.44, 152.93 62.7 M152.93 62.7 C102.26 65.04, 54.89 64.66, 15.68 62.7 M152.93 62.7 C116.5 62.01, 80.61 63.02, 15.68 62.7 M15.68 62.7 C4.55 61.48, -1.93 56.72, 0 47.03 M15.68 62.7 C7.03 61.09, -2.15 59.26, 0 47.03 M0 47.03 C-1.28 36.51, -0.02 27.5, 0 15.68 M0 47.03 C0.4 34.42, 0.25 22.45, 0 15.68 M0 15.68 C0.54 4.21, 3.51 0.36, 15.68 0 M0 15.68 C-0.65 5.34, 5.25 1.13, 15.68 0" stroke="#1e1e1e" stroke-width="1" fill="none"></path></g><g transform="translate(347.4470883133904 686.5060259661415) rotate(0 69.91666412353516 10)"><text x="69.91666412353516" y="0" font-family="Virgil, Segoe UI Emoji" font-size="16px" fill="#1e1e1e" text-anchor="middle" style="white-space: pre;" direction="ltr" dominant-baseline="text-before-edge">000: Barrel Shift</text></g><g stroke-linecap="round"><g transform="translate(238.08386138888977 698.7161759798813) rotate(0 46.070106115294635 0.04722055982799134)"><path d="M0.6 -0.25 C16.01 -0.27, 77.68 -0.15, 92.69 -0.01 M-0.55 -1.43 C14.77 -1.25, 76.7 1.52, 92.3 1.53" stroke="#1e1e1e" stroke-width="1" fill="none"></path></g><g transform="translate(238.08386138888977 698.7161759798813) rotate(0 46.070106115294635 0.04722055982799134)"><path d="M63.44 12.84 C72.91 6.26, 83 5.99, 92.05 2.86 M62.99 10.37 C72.61 7.87, 80.55 5.45, 92.53 2.09" stroke="#1e1e1e" stroke-width="1" fill="none"></path></g><g transform="translate(238.08386138888977 698.7161759798813) rotate(0 46.070106115294635 0.04722055982799134)"><path d="M63.95 -7.68 C73.28 -7.71, 83.2 -1.43, 92.05 2.86 M63.5 -10.15 C72.9 -6.89, 80.69 -3.56, 92.53 2.09" stroke="#1e1e1e" stroke-width="1" fill="none"></path></g></g><mask></mask></svg>