<svg version="1.1" xmlns="http://www.w3.org/2000/svg" viewBox="0 0 596.9359815649998 417.8321074970509" width="596.9359815649998" height="417.8321074970509">
  <!-- svg-source:excalidraw -->
  
  <defs>
    <style class="style-fonts">
      @font-face {
        font-family: "Virgil";
        src: url("https://excalidraw.com/Virgil.woff2");
      }
      @font-face {
        font-family: "Cascadia";
        src: url("https://excalidraw.com/Cascadia.woff2");
      }
    </style>
    
  </defs>
  <g stroke-linecap="round"><g transform="translate(72.30771737311176 10.513296890519541) rotate(0 0.17627053485611555 198.4027568580059)"><path d="M0.39 0.35 C0.42 66.4, 1.43 330.25, 1.18 396.24 M-0.86 -0.51 C-0.97 65.68, 0.5 331.03, 0.85 397.32" stroke="#1e1e1e" stroke-width="1" fill="none"></path></g></g><mask></mask><g stroke-linecap="round"><g transform="translate(10.361957317218184 349.0026286245094) rotate(0 288.1060334652817 -0.00024422979913651943)"><path d="M-0.36 -0.04 C95.76 -0.03, 480.42 1.08, 576.57 1.11 M1.65 -1.11 C97.65 -0.88, 480.05 -0.88, 575.76 -0.43" stroke="#1e1e1e" stroke-width="1" fill="none"></path></g></g><mask></mask><g stroke-linecap="round"><g transform="translate(72.30771737311181 50.33557121216538) rotate(0 148.2273544194596 150.43970299288435)"><path d="M0 0 C49.41 50.15, 247.05 250.73, 296.45 300.88 M0 0 C49.41 50.15, 247.05 250.73, 296.45 300.88" stroke="#e03131" stroke-width="1" fill="none"></path></g></g><mask></mask><g stroke-linecap="round"><g transform="translate(72.30771737311176 53.65409407230254) rotate(0 73.95665452659253 148.67631270334894)"><path d="M0.62 0.09 C25.23 49.76, 123.79 248.59, 148.43 298.26 M-0.52 -0.9 C23.89 48.38, 122.82 246.31, 147.54 296.4" stroke="#f08c00" stroke-width="1" fill="none"></path></g></g><mask></mask><g transform="translate(73.38662632836662 227.36623158203213) rotate(0 89.75125382069052 -42.57431270981478)" stroke="none"><path fill="#1971c2" d="M 2.41,1.39 Q 2.41,1.39 2.45,1.09 2.49,2.18 3.84,3.69 5.19,5.20 6.92,5.98 8.65,6.77 9.71,7.16 10.77,7.55 12.03,7.70 13.29,7.86 14.97,8.00 16.65,8.15 18.70,8.32 20.74,8.49 23.74,8.40 26.73,8.31 30.70,7.03 34.67,5.75 39.95,3.69 45.23,1.62 51.22,-0.99 57.22,-3.61 63.30,-6.47 69.37,-9.33 75.70,-12.52 82.03,-15.71 88.69,-19.26 95.34,-22.81 101.24,-26.28 107.14,-29.76 112.71,-33.64 118.27,-37.52 123.49,-41.58 128.72,-45.64 134.23,-50.44 139.75,-55.24 144.73,-59.92 149.71,-64.60 154.27,-68.80 158.83,-73.00 162.49,-76.96 166.16,-80.91 168.82,-83.92 171.49,-86.93 173.25,-89.27 175.02,-91.62 176.31,-93.73 177.59,-95.84 177.76,-96.02 177.94,-96.21 178.16,-96.32 178.38,-96.44 178.63,-96.48 178.88,-96.52 179.13,-96.48 179.37,-96.44 179.60,-96.32 179.82,-96.21 179.99,-96.02 180.16,-95.84 180.27,-95.61 180.38,-95.39 180.40,-95.14 180.43,-94.89 180.38,-94.64 180.32,-94.39 180.19,-94.18 180.06,-93.96 179.87,-93.80 179.68,-93.64 179.45,-93.54 179.21,-93.45 178.96,-93.44 178.71,-93.42 178.47,-93.49 178.23,-93.56 178.02,-93.70 177.81,-93.84 177.66,-94.04 177.51,-94.24 177.43,-94.48 177.34,-94.72 177.34,-94.97 177.34,-95.22 177.42,-95.46 177.50,-95.70 177.66,-95.90 177.81,-96.10 178.02,-96.24 178.23,-96.38 178.47,-96.45 178.71,-96.51 178.96,-96.50 179.21,-96.49 179.45,-96.39 179.68,-96.30 179.87,-96.14 180.06,-95.98 180.19,-95.76 180.32,-95.55 180.38,-95.30 180.43,-95.05 180.40,-94.80 180.38,-94.55 180.27,-94.33 180.17,-94.10 180.17,-94.10 180.17,-94.10 178.65,-92.06 177.13,-90.03 175.29,-87.60 173.46,-85.17 170.78,-82.14 168.10,-79.11 164.36,-75.08 160.63,-71.05 156.08,-66.85 151.54,-62.65 146.52,-57.94 141.51,-53.22 135.94,-48.37 130.38,-43.51 125.11,-39.40 119.83,-35.28 114.19,-31.33 108.55,-27.38 102.61,-23.85 96.68,-20.32 90.01,-16.72 83.34,-13.13 77.00,-9.88 70.66,-6.63 64.58,-3.69 58.50,-0.75 52.48,1.97 46.47,4.70 41.14,6.93 35.81,9.15 31.42,10.69 27.03,12.23 23.85,12.56 20.67,12.89 18.56,12.99 16.44,13.09 14.57,13.09 12.70,13.08 10.79,12.87 8.89,12.67 7.69,12.21 6.49,11.75 5.24,11.18 4.00,10.62 2.69,9.79 1.38,8.95 0.44,7.97 -0.49,7.00 -1.24,5.88 -2.00,4.76 -2.25,3.49 -2.49,2.22 -2.45,1.11 -2.41,-1.39 -2.38,-0.28 -2.34,-0.57 -2.24,-0.85 -2.14,-1.12 -1.97,-1.36 -1.80,-1.60 -1.59,-1.79 -1.37,-1.98 -1.11,-2.12 -0.85,-2.26 -0.57,-2.32 -0.29,-2.39 0.00,-2.39 0.29,-2.39 0.57,-2.32 0.85,-2.26 1.11,-2.12 1.37,-1.98 1.59,-1.79 1.80,-1.60 1.97,-1.36 2.14,-1.12 2.24,-0.85 2.34,-0.57 2.38,-0.28 2.41,0.00 2.41,0.00 L 2.41,1.39 Z"></path></g><g transform="translate(265.92991443942066 113.26631208848536) rotate(0 57.75 10)"><text x="0" y="0" font-family="Virgil, Segoe UI Emoji" font-size="16px" fill="#1e1e1e" text-anchor="start" style="white-space: pre;" direction="ltr" dominant-baseline="text-before-edge">Custo marginal</text></g><g transform="translate(379.4614149989267 321.72011380378365) rotate(0 34.63333511352539 10)"><text x="0" y="0" font-family="Virgil, Segoe UI Emoji" font-size="16px" fill="#1e1e1e" text-anchor="start" style="white-space: pre;" direction="ltr" dominant-baseline="text-before-edge">Demanda</text></g><g transform="translate(217.60231622827968 325.5556374713344) rotate(0 64.55833435058594 20)"><text x="0" y="0" font-family="Virgil, Segoe UI Emoji" font-size="16px" fill="#1e1e1e" text-anchor="start" style="white-space: pre;" direction="ltr" dominant-baseline="text-before-edge">Receita marginal</text><text x="0" y="20" font-family="Virgil, Segoe UI Emoji" font-size="16px" fill="#1e1e1e" text-anchor="start" style="white-space: pre;" direction="ltr" dominant-baseline="text-before-edge"></text></g><g transform="translate(151.63130914640448 215.85966057937947) rotate(0 3.0684189340407215 -1.5342094670203892)" stroke="none"><path d="M0.89 -3.2 C0.89 -3.2, 0.89 -3.2, 0.89 -3.2 M0.89 -3.2 C0.89 -3.2, 0.89 -3.2, 0.89 -3.2 M2.59 0.93 C3.37 0.03, 4.15 -0.87, 4.56 -1.34 M2.59 0.93 C3.08 0.37, 3.57 -0.19, 4.56 -1.34" stroke="#ffec99" stroke-width="0.5" fill="none"></path><path fill="#2f9e44" d="M -2.53,-0.63 Q -2.53,-0.63 -2.32,-1.57 -2.10,-2.52 -1.56,-3.54 -1.02,-4.56 -0.26,-5.33 0.49,-6.09 1.91,-6.39 3.33,-6.69 4.52,-6.25 5.71,-5.80 6.40,-4.96 7.09,-4.12 7.67,-2.79 8.24,-1.47 8.32,-0.40 8.40,0.65 7.10,2.23 5.80,3.82 4.35,3.96 2.90,4.09 1.56,3.84 0.22,3.58 1.82,1.69 3.42,-0.19 3.30,0.34 3.17,0.87 2.87,1.34 2.58,1.81 2.15,2.16 1.73,2.50 1.21,2.70 0.69,2.89 0.14,2.91 -0.40,2.93 -0.93,2.77 -1.45,2.61 -1.90,2.29 -2.35,1.98 -2.68,1.53 -3.00,1.09 -3.17,0.56 -3.33,0.04 -3.32,-0.51 -3.31,-1.06 -3.13,-1.58 -2.94,-2.09 -2.60,-2.53 -2.25,-2.96 -1.79,-3.26 -1.33,-3.56 -0.80,-3.69 -0.26,-3.83 0.28,-3.79 0.83,-3.75 1.33,-3.54 1.84,-3.32 2.25,-2.96 2.67,-2.59 2.94,-2.11 3.22,-1.64 3.32,-1.10 3.43,-0.56 3.36,-0.01 3.29,0.53 3.05,1.02 2.81,1.52 2.42,1.91 2.03,2.30 1.54,2.55 1.05,2.80 0.51,2.88 -0.03,2.96 -0.57,2.86 -1.11,2.76 -1.60,2.49 -2.08,2.22 -2.45,1.81 -2.82,1.41 -3.04,0.90 -3.26,0.40 -3.31,-0.14 -3.36,-0.69 -3.36,-0.69 -3.36,-0.69 -0.18,-0.85 2.99,-1.00 2.76,-0.18 2.53,0.63 2.42,0.92 2.30,1.22 2.12,1.47 1.94,1.73 1.71,1.94 1.47,2.15 1.19,2.29 0.91,2.44 0.61,2.51 0.30,2.59 -0.00,2.59 -0.32,2.59 -0.62,2.51 -0.93,2.43 -1.21,2.29 -1.49,2.14 -1.72,1.93 -1.96,1.72 -2.13,1.46 -2.31,1.20 -2.42,0.91 -2.53,0.61 -2.57,0.30 -2.61,-0.00 -2.57,-0.32 -2.53,-0.63 -2.53,-0.63 L -2.53,-0.63 Z"></path></g><g stroke-linecap="round"><g transform="translate(153.16551861342487 212.7912416453388) rotate(0 0 -39.505893775774084)"><path d="M0 0 C0 -13.17, 0 -65.84, 0 -79.01" stroke="#2f9e44" stroke-width="1.5" fill="none" stroke-dasharray="8 9"></path></g></g><mask></mask><g stroke-linecap="round"><g transform="translate(71.8524168613464 135.31366356081102) rotate(0 39.889446142529124 0)"><path d="M0 0 C13.3 0, 66.48 0, 79.78 0" stroke="#2f9e44" stroke-width="1.5" fill="none" stroke-dasharray="8 9"></path></g></g><mask></mask><g transform="translate(154.63656536032676 136.06676934092272) rotate(0 -1.1597897642765247 -1.623705669987089)" stroke="none"><path d="M-2.54 -3.53 C-2.54 -3.53, -2.54 -3.53, -2.54 -3.53 M-2.54 -3.53 C-2.54 -3.53, -2.54 -3.53, -2.54 -3.53 M-0.17 -0.15 C0.09 -0.45, 0.35 -0.75, 0.48 -0.91 M-0.17 -0.15 C0.01 -0.36, 0.19 -0.57, 0.48 -0.91" stroke="#ffec99" stroke-width="0.5" fill="none"></path><path fill="#2f9e44" d="M -2.47,0 Q -2.47,0 -2.49,-0.62 -2.51,-1.24 -2.43,-1.38 -2.35,-1.52 -2.31,-1.83 -2.28,-2.14 -2.16,-2.44 -2.05,-2.73 -1.87,-2.99 -1.69,-3.26 -1.46,-3.46 -1.22,-3.67 -0.94,-3.82 -0.66,-3.97 -0.35,-4.04 -0.04,-4.12 0.26,-4.12 0.58,-4.12 0.89,-4.04 1.19,-3.97 1.47,-3.82 1.75,-3.67 1.99,-3.46 2.23,-3.25 2.41,-2.99 2.58,-2.73 2.70,-2.44 2.81,-2.14 2.85,-1.83 2.89,-1.52 2.11,-0.08 1.34,1.35 0.17,1.59 -1.00,1.84 -1.47,0.72 -1.94,-0.38 -2.28,-0.42 -2.62,-0.46 -2.94,-0.58 -3.26,-0.69 -3.54,-0.89 -3.82,-1.08 -4.05,-1.33 -4.28,-1.59 -4.44,-1.89 -4.60,-2.19 -4.69,-2.52 -4.77,-2.85 -4.78,-3.19 -4.78,-3.53 -4.70,-3.87 -4.62,-4.20 -4.47,-4.50 -4.31,-4.81 -4.09,-5.06 -3.86,-5.32 -3.58,-5.52 -3.30,-5.71 -2.98,-5.84 -2.67,-5.96 -2.33,-6.01 -1.99,-6.05 -1.84,-6.04 -1.69,-6.04 -1.24,-5.92 -0.80,-5.80 -0.42,-5.55 -0.04,-5.30 0.24,-4.93 0.52,-4.57 0.67,-4.14 0.82,-3.71 0.82,-3.25 0.83,-2.79 0.69,-2.35 0.55,-1.92 0.27,-1.55 0.00,-1.18 -0.37,-0.92 -0.74,-0.66 -1.19,-0.53 -1.63,-0.40 -2.08,-0.42 -2.54,-0.44 -2.97,-0.61 -3.40,-0.77 -3.75,-1.07 -4.10,-1.36 -4.34,-1.75 -4.58,-2.14 -4.69,-2.59 -4.79,-3.03 -4.75,-3.49 -4.70,-3.95 -4.51,-4.36 -4.33,-4.78 -4.01,-5.12 -3.70,-5.45 -3.30,-5.67 -2.90,-5.89 -2.44,-5.97 -1.99,-6.05 -1.54,-5.98 -1.09,-5.91 -0.68,-5.70 -0.27,-5.49 0.04,-5.16 0.36,-4.83 0.55,-4.42 0.75,-4.00 0.80,-3.55 0.86,-3.09 0.77,-2.64 0.67,-2.20 0.44,-1.80 0.21,-1.40 -0.13,-1.10 -0.48,-0.80 -0.90,-0.63 -1.32,-0.45 -1.63,-0.42 -1.94,-0.38 -2.28,-0.42 -2.62,-0.46 -2.94,-0.58 -3.26,-0.69 -3.54,-0.89 -3.82,-1.08 -4.05,-1.33 -4.28,-1.58 -4.44,-1.89 -4.60,-2.19 -4.69,-2.52 -4.77,-2.85 -4.78,-3.19 -4.78,-3.53 -4.70,-3.87 -4.62,-4.20 -4.47,-4.50 -4.31,-4.81 -4.09,-5.06 -3.86,-5.32 -3.58,-5.52 -3.30,-5.71 -2.98,-5.84 -2.67,-5.96 -2.33,-6.01 -1.99,-6.05 -1.48,-4.72 -0.98,-3.39 -1.67,-2.45 -2.35,-1.52 -2.31,-1.83 -2.28,-2.14 -2.16,-2.44 -2.05,-2.73 -1.87,-2.99 -1.69,-3.25 -1.46,-3.46 -1.22,-3.67 -0.94,-3.82 -0.66,-3.97 -0.35,-4.04 -0.04,-4.12 0.26,-4.12 0.58,-4.12 0.88,-4.04 1.19,-3.97 1.47,-3.82 1.75,-3.67 1.99,-3.46 2.23,-3.26 2.40,-2.99 2.58,-2.73 2.70,-2.44 2.81,-2.14 2.85,-1.83 2.89,-1.52 2.70,-1.20 2.51,-0.88 2.49,-0.44 2.47,0 2.43,0.29 2.40,0.59 2.29,0.87 2.18,1.14 2.02,1.39 1.85,1.63 1.62,1.83 1.40,2.03 1.14,2.17 0.87,2.31 0.58,2.38 0.29,2.45 -0.00,2.45 -0.29,2.45 -0.58,2.38 -0.87,2.31 -1.14,2.17 -1.40,2.03 -1.62,1.83 -1.85,1.63 -2.02,1.39 -2.18,1.14 -2.29,0.87 -2.40,0.59 -2.43,0.29 -2.47,-0.00 -2.47,-0.00 L -2.47,0 Z"></path></g><g stroke-opacity="0.7" fill-opacity="0.7" transform="translate(155.87535439884033 211.33581149431706) rotate(0 25.781892656392984 -36.37445320514368)" stroke="none"><path d="M-2.65 -72.53 C-2.65 -72.53, -2.65 -72.53, -2.65 -72.53 M-2.65 -72.53 C-2.65 -72.53, -2.65 -72.53, -2.65 -72.53 M0.37 -69.9 C0.37 -69.9, 0.37 -69.9, 0.37 -69.9 M0.37 -69.9 C0.37 -69.9, 0.37 -69.9, 0.37 -69.9 M2.74 -66.52 C2.87 -66.67, 3 -66.83, 3.39 -67.28 M2.74 -66.52 C3 -66.82, 3.25 -67.12, 3.39 -67.28 M3.79 -61.63 C4.77 -62.76, 5.75 -63.89, 6.41 -64.65 M3.79 -61.63 C4.41 -62.35, 5.03 -63.06, 6.41 -64.65 M3.53 -55.24 C5.41 -57.41, 7.3 -59.57, 9.43 -62.03 M3.53 -55.24 C5.67 -57.7, 7.81 -60.16, 9.43 -62.03 M3.26 -48.84 C6.79 -52.9, 10.32 -56.96, 13.11 -60.16 M3.26 -48.84 C7.18 -53.34, 11.09 -57.84, 13.11 -60.16 M3 -42.44 C6.37 -46.31, 9.73 -50.18, 15.47 -56.78 M3 -42.44 C7.41 -47.51, 11.81 -52.58, 15.47 -56.78 M2.74 -36.04 C7.78 -41.84, 12.82 -47.64, 18.49 -54.16 M2.74 -36.04 C8.29 -42.42, 13.83 -48.8, 18.49 -54.16 M4.45 -31.91 C11.39 -39.89, 18.33 -47.88, 22.16 -52.29 M4.45 -31.91 C8.86 -36.98, 13.27 -42.06, 22.16 -52.29 M4.19 -25.51 C8.64 -30.63, 13.09 -35.75, 25.18 -49.66 M4.19 -25.51 C11.6 -34.04, 19.01 -42.56, 25.18 -49.66 M0.64 -15.34 C8.36 -24.22, 16.08 -33.1, 28.2 -47.04 M0.64 -15.34 C7.51 -23.24, 14.38 -31.14, 28.2 -47.04 M1.04 -9.7 C9.97 -19.98, 18.91 -30.25, 31.22 -44.41 M1.04 -9.7 C10.72 -20.83, 20.4 -31.97, 31.22 -44.41 M2.75 -5.56 C11.82 -16.01, 20.9 -26.45, 34.24 -41.79 M2.75 -5.56 C14.42 -18.99, 26.08 -32.41, 34.24 -41.79 M7.73 -5.2 C14.87 -13.42, 22.01 -21.63, 37.26 -39.16 M7.73 -5.2 C17.87 -16.86, 28 -28.52, 37.26 -39.16 M15.34 -7.86 C21 -14.37, 26.66 -20.88, 40.27 -36.54 M15.34 -7.86 C24 -17.82, 32.65 -27.77, 40.27 -36.54 M24.92 -12.78 C28.94 -17.41, 32.96 -22.03, 42.64 -33.16 M24.92 -12.78 C31.58 -20.44, 38.23 -28.1, 42.64 -33.16 M35.16 -18.46 C37.77 -21.46, 40.38 -24.47, 45 -29.78 M35.16 -18.46 C38.41 -22.2, 41.65 -25.93, 45 -29.78 M44.74 -23.38 C45.98 -24.81, 47.22 -26.23, 49.99 -29.42 M44.74 -23.38 C46.52 -25.44, 48.31 -27.49, 49.99 -29.42 M53.01 -26.8 C53.31 -27.14, 53.61 -27.49, 54.32 -28.31 M53.01 -26.8 C53.51 -27.38, 54.02 -27.97, 54.32 -28.31" stroke="#e9ecef" stroke-width="0.5" fill="none"></path><path fill="#343a40" d="M -1.13,-1.26 Q -1.13,-1.26 -0.02,-2.34 1.08,-3.42 2.59,-4.44 4.09,-5.45 5.81,-6.33 7.52,-7.21 9.28,-8.02 11.05,-8.83 13.05,-9.79 15.05,-10.75 17.28,-11.94 19.51,-13.13 21.98,-14.43 24.44,-15.74 26.99,-17.09 29.54,-18.44 32.26,-19.71 34.99,-20.98 37.41,-22.09 39.82,-23.19 41.89,-24.12 43.96,-25.04 45.90,-25.81 47.83,-26.58 49.18,-27.21 50.53,-27.85 51.54,-28.64 52.54,-29.43 52.53,-28.35 52.51,-27.26 51.38,-27.10 50.25,-26.93 49.06,-26.82 47.86,-26.70 46.18,-27.18 44.50,-27.67 43.21,-28.59 41.92,-29.51 40.80,-30.60 39.67,-31.69 38.30,-33.38 36.94,-35.07 36.12,-35.91 35.30,-36.74 34.32,-37.76 33.35,-38.79 32.07,-40.03 30.79,-41.28 29.40,-42.74 28.01,-44.21 26.61,-45.49 25.21,-46.77 23.49,-48.32 21.78,-49.86 19.95,-51.33 18.13,-52.80 16.26,-54.54 14.40,-56.27 12.66,-57.66 10.92,-59.05 9.33,-60.35 7.74,-61.65 6.27,-62.73 4.80,-63.81 3.54,-64.69 2.29,-65.58 1.15,-66.38 0.02,-67.18 -0.87,-67.86 -1.77,-68.54 -3.21,-69.93 -4.64,-71.33 -4.06,-73.03 -3.48,-74.73 -1.77,-74.35 -0.06,-73.96 0.87,-72.41 1.82,-70.86 2.33,-69.17 2.84,-67.47 3.08,-64.59 3.31,-61.72 3.46,-58.35 3.60,-54.99 3.62,-51.59 3.64,-48.18 3.62,-44.09 3.60,-40.01 3.57,-36.43 3.54,-32.86 3.40,-29.82 3.26,-26.78 3.07,-24.33 2.88,-21.88 2.74,-20.01 2.60,-18.15 2.62,-16.82 2.64,-15.49 2.70,-14.36 2.76,-13.23 2.90,-11.72 3.04,-10.20 3.49,-8.78 3.94,-7.36 4.09,-7.00 4.23,-6.64 4.26,-6.26 4.28,-5.88 4.18,-5.51 4.08,-5.14 3.87,-4.82 3.66,-4.50 3.35,-4.26 3.05,-4.03 2.69,-3.90 2.32,-3.77 1.94,-3.77 1.55,-3.77 1.19,-3.89 0.82,-4.01 0.52,-4.24 0.21,-4.47 -0.00,-4.78 -0.22,-5.10 -0.32,-5.47 -0.43,-5.84 -0.41,-6.22 -0.40,-6.60 -0.26,-6.96 -0.12,-7.32 0.12,-7.62 0.37,-7.91 0.69,-8.11 1.02,-8.31 1.39,-8.40 1.77,-8.48 2.15,-8.45 2.53,-8.41 2.88,-8.25 3.23,-8.09 3.52,-7.83 3.80,-7.57 3.98,-7.23 4.16,-6.89 4.23,-6.51 4.29,-6.13 4.23,-5.75 4.18,-5.37 4.00,-5.03 3.82,-4.69 3.54,-4.43 3.27,-4.16 2.92,-4.00 2.57,-3.83 2.19,-3.79 1.81,-3.74 1.43,-3.82 1.06,-3.90 0.73,-4.10 0.40,-4.29 0.14,-4.58 -0.10,-4.87 -0.10,-4.87 -0.10,-4.87 -0.76,-7.56 -1.42,-10.24 -1.24,-11.79 -1.07,-13.34 -0.94,-14.52 -0.81,-15.69 -0.63,-17.07 -0.46,-18.45 -0.23,-20.26 -0.01,-22.07 0.11,-24.48 0.25,-26.88 0.32,-29.86 0.39,-32.84 0.32,-36.40 0.25,-39.97 0.13,-44.02 0.02,-48.07 -0.17,-51.37 -0.37,-54.68 -0.74,-57.91 -1.11,-61.14 -1.56,-63.51 -2.00,-65.87 -2.54,-67.32 -3.08,-68.77 -3.36,-70.09 -3.64,-71.42 -2.27,-70.96 -0.91,-70.50 -0.48,-71.65 -0.04,-72.79 1.17,-71.48 2.38,-70.18 3.42,-69.27 4.45,-68.35 5.60,-67.37 6.75,-66.38 8.22,-65.22 9.70,-64.07 11.27,-62.81 12.84,-61.56 14.73,-60.17 16.63,-58.79 18.46,-57.25 20.29,-55.71 22.29,-54.34 24.29,-52.97 26.17,-51.61 28.06,-50.24 29.70,-49.03 31.35,-47.81 32.81,-46.62 34.27,-45.44 35.90,-44.25 37.54,-43.06 38.55,-42.13 39.56,-41.20 40.72,-40.15 41.88,-39.09 42.59,-38.24 43.30,-37.40 44.35,-36.23 45.39,-35.06 45.78,-34.01 46.18,-32.96 47.22,-32.69 48.26,-32.41 49.46,-32.29 50.66,-32.17 51.82,-32.01 52.98,-31.86 53.99,-31.34 55.00,-30.81 55.45,-29.26 55.89,-27.72 54.84,-26.70 53.78,-25.68 52.74,-25.28 51.69,-24.89 50.27,-24.44 48.84,-23.98 46.96,-23.27 45.09,-22.55 43.04,-21.61 40.99,-20.67 38.60,-19.54 36.21,-18.42 33.56,-17.15 30.92,-15.87 28.41,-14.48 25.89,-13.09 23.47,-11.72 21.06,-10.36 18.83,-9.06 16.60,-7.76 14.61,-6.64 12.61,-5.53 10.92,-4.71 9.23,-3.88 7.68,-3.08 6.12,-2.27 4.82,-1.49 3.51,-0.70 2.32,0.27 1.13,1.26 0.97,1.38 0.80,1.50 0.61,1.57 0.42,1.65 0.21,1.67 0.01,1.70 -0.19,1.67 -0.39,1.65 -0.58,1.58 -0.77,1.51 -0.94,1.39 -1.11,1.28 -1.25,1.13 -1.39,0.97 -1.49,0.79 -1.58,0.61 -1.63,0.41 -1.68,0.21 -1.69,0.01 -1.69,-0.19 -1.64,-0.39 -1.59,-0.59 -1.50,-0.77 -1.40,-0.95 -1.27,-1.11 -1.13,-1.26 -1.13,-1.26 L -1.13,-1.26 Z"></path></g><g stroke-linecap="round"><g transform="translate(207.44966125945024 112.19364362626038) rotate(0 -13.681816796912528 19.325566225638937)"><path d="M0 0 C-4.56 6.44, -22.8 32.21, -27.36 38.65 M0 0 C-4.56 6.44, -22.8 32.21, -27.36 38.65" stroke="#343a40" stroke-width="1" fill="none"></path></g><g transform="translate(207.44966125945024 112.19364362626038) rotate(0 -13.681816796912528 19.325566225638937)"><path d="M-21.12 15.81 C-23.22 23.5, -25.32 31.19, -27.36 38.65 M-21.12 15.81 C-23.08 22.97, -25.03 30.13, -27.36 38.65" stroke="#343a40" stroke-width="1" fill="none"></path></g><g transform="translate(207.44966125945024 112.19364362626038) rotate(0 -13.681816796912528 19.325566225638937)"><path d="M-7.9 25.17 C-14.45 29.71, -21 34.25, -27.36 38.65 M-7.9 25.17 C-14 29.4, -20.1 33.62, -27.36 38.65" stroke="#343a40" stroke-width="1" fill="none"></path></g></g><mask></mask><g transform="translate(182.48034560508478 87.90841881174063) rotate(0 44.33333206176758 10)"><text x="0" y="0" font-family="Virgil, Segoe UI Emoji" font-size="16px" fill="#343a40" text-anchor="start" style="white-space: pre;" direction="ltr" dominant-baseline="text-before-edge">Peso morto</text></g><g stroke-opacity="0.5" fill-opacity="0.5" transform="translate(73.70990206963046 138.531140960317) rotate(0 36.598859931741 44.97897271984991)" stroke="none"><path d="M0 0 C0 0, 0 0, 0 0 M0 0 C0 0, 0 0, 0 0 M3.02 2.62 C3.33 2.27, 3.64 1.91, 4.33 1.11 M3.02 2.62 C3.41 2.17, 3.81 1.72, 4.33 1.11 M5.38 6 C6.48 4.74, 7.58 3.47, 9.32 1.47 M5.38 6 C6.55 4.66, 7.72 3.32, 9.32 1.47 M7.09 10.14 C8.45 8.57, 9.8 7.01, 13.65 2.59 M7.09 10.14 C8.46 8.55, 9.84 6.97, 13.65 2.59 M8.8 14.27 C12.65 9.84, 16.5 5.4, 20.6 0.69 M8.8 14.27 C12.33 10.21, 15.86 6.14, 20.6 0.69 M10.5 18.4 C15.85 12.25, 21.2 6.1, 25.59 1.05 M10.5 18.4 C16.42 11.59, 22.35 4.78, 25.59 1.05 M10.24 24.8 C16.43 17.68, 22.62 10.56, 28.61 3.67 M10.24 24.8 C14.19 20.26, 18.14 15.72, 28.61 3.67 M8.67 32.71 C15.6 24.74, 22.53 16.76, 34.25 3.28 M8.67 32.71 C14.22 26.32, 19.77 19.93, 34.25 3.28 M5.78 42.13 C13.49 33.26, 21.19 24.4, 39.9 2.88 M5.78 42.13 C16.12 30.23, 26.47 18.33, 39.9 2.88 M4.86 49.28 C19.78 32.12, 34.69 14.97, 45.54 2.49 M4.86 49.28 C15.41 37.14, 25.96 25.01, 45.54 2.49 M6.57 53.41 C18.63 39.53, 30.7 25.65, 50.53 2.85 M6.57 53.41 C18.93 39.19, 31.3 24.97, 50.53 2.85 M5.65 60.56 C24.55 38.82, 43.46 17.08, 56.83 1.7 M5.65 60.56 C16.04 48.62, 26.42 36.68, 56.83 1.7 M7.36 64.7 C20.13 50.01, 32.89 35.32, 62.47 1.3 M7.36 64.7 C19.71 50.49, 32.06 36.28, 62.47 1.3 M8.41 69.59 C21.94 54.03, 35.46 38.47, 68.77 0.15 M8.41 69.59 C28.88 46.04, 49.36 22.48, 68.77 0.15 M7.49 76.74 C21.64 60.47, 35.79 44.19, 73.75 0.51 M7.49 76.74 C25.03 56.57, 42.56 36.4, 73.75 0.51 M7.23 83.14 C33.26 53.19, 59.29 23.25, 73.49 6.91 M7.23 83.14 C24.95 62.75, 42.68 42.36, 73.49 6.91 M5.66 91.04 C19.51 75.1, 33.37 59.16, 73.89 12.55 M5.66 91.04 C25.67 68.02, 45.69 44.99, 73.89 12.55 M9.99 92.16 C32.81 65.91, 55.63 39.66, 74.28 18.2 M9.99 92.16 C35.37 62.96, 60.75 33.76, 74.28 18.2 M15.63 91.76 C36.12 68.2, 56.6 44.64, 74.02 24.59 M15.63 91.76 C30.75 74.38, 45.86 56.99, 74.02 24.59 M20.62 92.12 C36.92 73.37, 53.22 54.62, 73.76 30.99 M20.62 92.12 C33.16 77.7, 45.7 63.28, 73.76 30.99 M26.26 91.73 C39.22 76.83, 52.17 61.93, 73.5 37.39 M26.26 91.73 C38.89 77.2, 51.52 62.67, 73.5 37.39 M33.87 89.07 C44.53 76.81, 55.19 64.55, 74.55 42.28 M33.87 89.07 C46.63 74.39, 59.4 59.71, 74.55 42.28 M38.86 89.43 C51.31 75.11, 63.76 60.78, 73.63 49.43 M38.86 89.43 C48.7 78.11, 58.54 66.79, 73.63 49.43 M44.5 89.04 C54.65 77.36, 64.8 65.69, 73.37 55.83 M44.5 89.04 C51.97 80.45, 59.43 71.86, 73.37 55.83 M50.8 87.89 C56.48 81.36, 62.15 74.83, 73.11 62.23 M50.8 87.89 C55.88 82.05, 60.95 76.21, 73.11 62.23 M57.76 85.98 C62.85 80.13, 67.94 74.27, 73.5 67.87 M57.76 85.98 C62.62 80.39, 67.48 74.8, 73.5 67.87 M68.65 79.55 C70.4 77.53, 72.16 75.51, 73.24 74.27 M68.65 79.55 C69.94 78.07, 71.23 76.58, 73.24 74.27" stroke="#eebefa" stroke-width="0.5" fill="none"></path><path fill="#9c36b5" d="M -1.41,-1.74 Q -1.41,-1.74 1.57,-1.80 3.14,-1.85 4.40,-1.92 5.66,-2.00 7.18,-2.03 8.70,-2.07 10.72,-1.81 12.74,-1.56 14.97,-1.39 17.19,-1.23 19.75,-1.03 22.31,-0.83 25.14,-0.73 27.96,-0.62 30.93,-0.56 33.91,-0.50 36.84,-0.47 39.78,-0.43 42.40,-0.41 45.03,-0.39 47.42,-0.37 49.82,-0.36 51.72,-0.40 53.62,-0.43 54.92,-0.54 56.22,-0.65 57.39,-0.81 58.55,-0.97 59.71,-1.12 60.87,-1.28 62.01,-1.38 63.15,-1.49 64.34,-1.73 65.52,-1.98 66.60,-2.27 67.67,-2.57 68.78,-2.81 69.88,-3.05 70.72,-3.99 71.55,-4.94 71.93,-5.04 72.32,-5.14 72.72,-5.15 73.12,-5.16 73.50,-5.07 73.89,-4.98 74.25,-4.80 74.60,-4.62 74.91,-4.36 75.21,-4.10 75.44,-3.78 75.67,-3.45 75.82,-3.08 75.97,-2.71 76.02,-2.32 76.07,-1.92 76.03,-1.53 75.99,-1.13 75.86,-0.76 75.72,-0.38 75.50,-0.05 75.28,0.27 74.99,0.54 74.69,0.81 74.34,1.00 73.99,1.19 74.89,-1.01 75.78,-3.22 76.12,-1.83 76.45,-0.44 76.46,0.69 76.46,1.82 76.41,3.27 76.35,4.71 76.07,6.77 75.80,8.83 75.47,11.25 75.14,13.67 74.94,16.32 74.74,18.97 74.60,21.97 74.47,24.97 74.38,28.31 74.28,31.65 74.22,34.35 74.15,37.05 74.11,39.57 74.06,42.10 74.11,43.86 74.15,45.62 74.22,47.16 74.29,48.69 74.37,49.93 74.46,51.18 74.53,52.29 74.61,53.41 74.88,54.75 75.14,56.09 75.48,57.30 75.82,58.51 75.94,59.67 76.05,60.82 76.13,61.94 76.20,63.06 76.27,64.64 76.33,66.23 76.38,67.69 76.44,69.16 76.48,70.32 76.53,71.49 76.41,72.58 76.29,73.68 76.30,74.79 76.31,75.90 75.73,77.36 75.16,78.82 74.24,79.63 73.33,80.44 72.19,81.31 71.05,82.18 69.64,82.96 68.23,83.74 67.05,84.39 65.87,85.03 64.49,85.72 63.11,86.41 61.45,87.23 59.78,88.05 58.72,88.44 57.66,88.83 56.34,89.11 55.03,89.40 53.79,89.66 52.54,89.91 51.35,90.19 50.15,90.47 48.48,90.67 46.81,90.87 45.24,91.01 43.67,91.15 42.00,91.26 40.33,91.37 38.36,91.35 36.39,91.32 34.44,91.49 32.48,91.66 30.15,91.79 27.83,91.91 25.36,92.02 22.90,92.14 20.68,92.25 18.46,92.37 16.58,92.64 14.70,92.90 13.05,93.08 11.39,93.26 10.27,93.49 9.16,93.72 7.87,93.96 6.59,94.19 5.34,93.84 4.09,93.50 3.59,92.52 3.09,91.54 3.34,89.98 3.58,88.41 3.70,86.96 3.83,85.50 3.80,83.94 3.77,82.37 3.77,81.30 3.78,80.24 3.80,79.00 3.82,77.76 3.88,76.25 3.94,74.74 3.99,72.89 4.03,71.03 3.93,69.11 3.83,67.19 3.63,65.28 3.42,63.38 3.27,61.33 3.12,59.27 3.07,57.27 3.01,55.28 2.99,53.35 2.98,51.42 3.00,49.42 3.02,47.42 2.99,45.68 2.96,43.95 3.10,42.39 3.24,40.83 3.47,39.53 3.70,38.23 4.09,36.91 4.48,35.59 4.80,34.48 5.12,33.37 5.57,32.21 6.01,31.05 6.38,29.45 6.75,27.84 6.88,26.54 7.02,25.25 6.99,23.88 6.95,22.50 6.89,21.42 6.83,20.35 6.78,19.18 6.72,18.01 6.39,16.89 6.07,15.78 4.93,14.55 3.80,13.33 3.29,11.99 2.77,10.65 2.40,8.34 2.03,6.02 1.99,5.45 1.96,4.88 2.11,4.32 2.27,3.77 2.59,3.29 2.91,2.81 3.37,2.46 3.82,2.12 4.37,1.93 4.91,1.75 5.49,1.75 6.06,1.74 6.61,1.93 7.15,2.11 7.61,2.46 8.07,2.80 8.40,3.28 8.72,3.75 8.87,4.31 9.03,4.86 9.00,5.44 8.97,6.01 8.76,6.55 8.55,7.08 8.17,7.52 7.80,7.96 7.31,8.26 6.82,8.55 6.26,8.68 5.70,8.80 5.12,8.74 4.55,8.68 4.03,8.44 3.51,8.20 3.09,7.80 2.67,7.41 2.40,6.90 2.13,6.39 2.04,5.83 1.94,5.26 2.03,4.69 2.13,4.12 2.39,3.62 2.66,3.11 3.08,2.71 3.50,2.31 4.02,2.07 4.54,1.83 5.11,1.77 5.68,1.70 6.24,1.83 6.81,1.95 7.30,2.24 7.79,2.54 8.17,2.98 8.54,3.42 8.75,3.95 8.97,4.48 8.97,4.48 8.97,4.48 9.02,6.95 9.08,9.42 10.05,10.36 11.03,11.30 11.59,12.23 12.15,13.15 12.45,14.39 12.75,15.63 12.93,16.82 13.11,18.01 13.05,19.18 12.99,20.36 12.92,21.50 12.85,22.64 12.74,23.85 12.64,25.05 12.37,26.23 12.09,27.41 11.64,29.14 11.19,30.86 10.34,32.86 9.50,34.86 9.07,35.94 8.65,37.03 8.21,38.10 7.78,39.18 7.45,40.27 7.12,41.36 6.87,42.65 6.63,43.93 6.61,45.66 6.60,47.39 6.65,49.36 6.71,51.34 6.77,53.21 6.84,55.09 6.97,56.96 7.11,58.82 7.41,60.77 7.71,62.72 8.10,64.67 8.49,66.63 8.87,68.70 9.25,70.77 9.49,72.75 9.73,74.74 9.79,76.25 9.85,77.76 9.87,79.00 9.89,80.24 9.88,82.19 9.88,84.14 9.82,85.34 9.77,86.54 9.46,87.93 9.15,89.32 8.45,90.32 7.75,91.32 7.04,90.53 6.32,89.74 7.49,89.80 8.67,89.85 9.90,89.79 11.13,89.72 12.68,89.67 14.24,89.61 16.21,89.33 18.18,89.04 20.39,88.80 22.60,88.55 25.01,88.26 27.41,87.98 29.60,87.63 31.79,87.28 33.98,86.79 36.18,86.30 37.95,86.12 39.73,85.94 41.32,85.69 42.92,85.43 44.39,85.18 45.87,84.92 47.20,84.64 48.53,84.37 49.77,84.00 51.02,83.63 52.27,83.27 53.53,82.92 55.21,82.37 56.88,81.83 58.42,81.00 59.96,80.18 61.28,79.50 62.59,78.82 63.88,78.10 65.17,77.38 66.14,76.84 67.10,76.30 68.28,75.28 69.46,74.26 69.66,72.87 69.85,71.49 69.90,70.32 69.95,69.16 70.00,67.69 70.05,66.23 70.12,64.64 70.18,63.06 70.26,61.94 70.33,60.82 70.44,59.72 70.55,58.62 70.49,57.55 70.43,56.47 70.42,54.94 70.41,53.41 70.48,52.29 70.56,51.18 70.64,49.93 70.73,48.69 70.80,47.15 70.87,45.62 70.91,43.86 70.96,42.10 70.92,39.57 70.88,37.05 70.82,34.34 70.77,31.64 70.69,28.29 70.62,24.94 70.54,21.91 70.45,18.88 70.37,16.13 70.28,13.39 70.24,10.97 70.19,8.56 70.10,6.66 70.01,4.75 69.94,3.35 69.86,1.95 69.86,0.80 69.85,-0.33 70.70,-2.64 71.55,-4.94 71.93,-5.04 72.32,-5.14 72.72,-5.15 73.11,-5.16 73.50,-5.07 73.89,-4.98 74.25,-4.80 74.60,-4.62 74.91,-4.36 75.21,-4.10 75.44,-3.78 75.67,-3.45 75.82,-3.08 75.97,-2.71 76.02,-2.32 76.07,-1.92 76.03,-1.53 75.99,-1.13 75.86,-0.76 75.72,-0.38 75.50,-0.05 75.28,0.27 74.99,0.54 74.69,0.81 74.34,1.00 73.99,1.19 73.56,1.27 73.13,1.35 71.74,2.21 70.35,3.07 69.20,3.03 68.06,3.00 66.90,3.24 65.74,3.47 64.45,3.51 63.15,3.54 62.01,3.44 60.87,3.33 59.71,3.18 58.55,3.02 57.39,2.86 56.22,2.70 54.92,2.59 53.62,2.48 51.72,2.44 49.81,2.40 47.42,2.41 45.02,2.43 42.40,2.44 39.77,2.45 36.83,2.47 33.88,2.48 30.89,2.50 27.90,2.51 25.02,2.50 22.14,2.49 19.60,2.42 17.06,2.35 14.70,2.35 12.34,2.35 10.52,2.21 8.69,2.07 7.18,2.03 5.66,2.00 4.40,1.92 3.14,1.85 1.57,1.80 1.41,1.74 -0.20,1.72 -0.41,1.69 -0.61,1.62 -0.81,1.54 -0.98,1.42 -1.15,1.30 -1.29,1.15 -1.43,0.99 -1.53,0.80 -1.63,0.61 -1.68,0.41 -1.73,0.21 -1.73,-0.00 -1.73,-0.21 -1.68,-0.41 -1.63,-0.61 -1.53,-0.80 -1.43,-0.99 -1.29,-1.15 -1.15,-1.30 -0.98,-1.42 -0.81,-1.54 -0.61,-1.62 -0.41,-1.69 -0.20,-1.72 0.00,-1.74 0.00,-1.74 L -1.41,-1.74 Z"></path></g><g stroke-linecap="round"><g transform="translate(121.25421543890155 272.2709001501369) rotate(0 -1.5392043896526673 -18.470452675831922)"><path d="M0 0 C-0.51 -6.16, -2.57 -30.78, -3.08 -36.94 M0 0 C-0.51 -6.16, -2.57 -30.78, -3.08 -36.94" stroke="#9c36b5" stroke-width="1" fill="none"></path></g><g transform="translate(121.25421543890155 272.2709001501369) rotate(0 -1.5392043896526673 -18.470452675831922)"><path d="M4.69 -20.11 C2.43 -25.01, 0.17 -29.9, -3.08 -36.94 M4.69 -20.11 C2.84 -24.11, 0.99 -28.11, -3.08 -36.94" stroke="#9c36b5" stroke-width="1" fill="none"></path></g><g transform="translate(121.25421543890155 272.2709001501369) rotate(0 -1.5392043896526673 -18.470452675831922)"><path d="M-7.95 -19.06 C-6.53 -24.26, -5.12 -29.46, -3.08 -36.94 M-7.95 -19.06 C-6.79 -23.31, -5.63 -27.56, -3.08 -36.94" stroke="#9c36b5" stroke-width="1" fill="none"></path></g></g><mask></mask><g transform="translate(84.99740092708339 275.0072635095194) rotate(0 46.28333282470703 20)"><text x="0" y="0" font-family="Virgil, Segoe UI Emoji" font-size="16px" fill="#9c36b5" text-anchor="start" style="white-space: pre;" direction="ltr" dominant-baseline="text-before-edge">Excedente</text><text x="0" y="20" font-family="Virgil, Segoe UI Emoji" font-size="16px" fill="#9c36b5" text-anchor="start" style="white-space: pre;" direction="ltr" dominant-baseline="text-before-edge">do produtor</text></g><g stroke-opacity="0.5" fill-opacity="0.5" transform="translate(74.50677950971658 132.6252856307479) rotate(0 32.79393943950265 -35.578330523988726)" stroke="none"><path d="M-4.21 -75.21 C-4.21 -75.21, -4.21 -75.21, -4.21 -75.21 M-4.21 -75.21 C-4.21 -75.21, -4.21 -75.21, -4.21 -75.21 M-4.47 -68.81 C-2.61 -70.96, -0.74 -73.11, 0.77 -74.85 M-4.47 -68.81 C-3.02 -70.49, -1.57 -72.16, 0.77 -74.85 M-3.42 -63.93 C-1.58 -66.05, 0.26 -68.17, 3.79 -72.23 M-3.42 -63.93 C-0.9 -66.83, 1.63 -69.74, 3.79 -72.23 M-3.03 -58.28 C-1.1 -60.5, 0.83 -62.72, 6.16 -68.85 M-3.03 -58.28 C-0.42 -61.28, 2.19 -64.28, 6.16 -68.85 M-1.98 -53.39 C2.13 -58.12, 6.23 -62.84, 9.18 -66.22 M-1.98 -53.39 C2.22 -58.23, 6.43 -63.06, 9.18 -66.22 M-0.27 -49.26 C3.91 -54.07, 8.08 -58.87, 11.54 -62.85 M-0.27 -49.26 C2.68 -52.66, 5.63 -56.05, 11.54 -62.85 M0.78 -44.37 C6.21 -50.63, 11.65 -56.88, 14.56 -60.22 M0.78 -44.37 C4.5 -48.65, 8.21 -52.92, 14.56 -60.22 M3.8 -41.75 C8.39 -47.03, 12.98 -52.31, 16.92 -56.84 M3.8 -41.75 C7.33 -45.81, 10.86 -49.87, 16.92 -56.84 M4.19 -36.11 C7.81 -40.26, 11.42 -44.42, 19.28 -53.46 M4.19 -36.11 C9.76 -42.51, 15.33 -48.92, 19.28 -53.46 M2.62 -28.2 C7.94 -34.31, 13.25 -40.43, 22.3 -50.84 M2.62 -28.2 C8.57 -35.04, 14.52 -41.89, 22.3 -50.84 M3.01 -22.56 C10.92 -31.66, 18.84 -40.76, 24.66 -47.46 M3.01 -22.56 C8.05 -28.35, 13.08 -34.14, 24.66 -47.46 M2.1 -15.4 C11.89 -26.67, 21.69 -37.94, 27.03 -44.08 M2.1 -15.4 C9.03 -23.38, 15.97 -31.36, 27.03 -44.08 M1.18 -8.25 C9.44 -17.75, 17.69 -27.25, 29.39 -40.7 M1.18 -8.25 C10.61 -19.1, 20.04 -29.94, 29.39 -40.7 M0.26 -1.1 C9.87 -12.15, 19.48 -23.21, 31.75 -37.32 M0.26 -1.1 C12.63 -15.33, 25 -29.55, 31.75 -37.32 M2.62 2.28 C12.05 -8.57, 21.48 -19.41, 34.12 -33.94 M2.62 2.28 C14.16 -10.98, 25.69 -24.25, 34.12 -33.94 M6.3 4.15 C12.38 -2.84, 18.45 -9.83, 36.48 -30.57 M6.3 4.15 C12.59 -3.09, 18.89 -10.33, 36.48 -30.57 M10.63 5.27 C19.91 -5.41, 29.2 -16.1, 39.5 -27.94 M10.63 5.27 C20.37 -5.94, 30.11 -17.14, 39.5 -27.94 M16.27 4.87 C26.35 -6.72, 36.42 -18.31, 42.52 -25.32 M16.27 4.87 C25.61 -5.87, 34.94 -16.6, 42.52 -25.32 M21.26 5.23 C27.4 -1.84, 33.55 -8.9, 45.53 -22.69 M21.26 5.23 C27.91 -2.42, 34.56 -10.06, 45.53 -22.69 M26.25 5.59 C34.35 -3.72, 42.44 -13.04, 48.55 -20.07 M26.25 5.59 C31.41 -0.35, 36.57 -6.29, 48.55 -20.07 M31.23 5.95 C36.38 0.03, 41.53 -5.9, 52.23 -18.2 M31.23 5.95 C37.93 -1.75, 44.63 -9.46, 52.23 -18.2 M37.53 4.8 C43.85 -2.47, 50.17 -9.73, 55.25 -15.58 M37.53 4.8 C42.85 -1.32, 48.17 -7.43, 55.25 -15.58 M43.18 4.41 C46.45 0.64, 49.72 -3.12, 58.92 -13.71 M43.18 4.41 C46.85 0.18, 50.53 -4.05, 58.92 -13.71 M48.16 4.77 C53.8 -1.72, 59.44 -8.21, 62.6 -11.84 M48.16 4.77 C53.84 -1.77, 59.53 -8.3, 62.6 -11.84 M55.12 2.86 C58.75 -1.32, 62.38 -5.49, 66.93 -10.72 M55.12 2.86 C58.6 -1.14, 62.08 -5.14, 66.93 -10.72 M62.07 0.96 C64.95 -2.35, 67.83 -5.66, 69.29 -7.34 M62.07 0.96 C63.59 -0.79, 65.11 -2.54, 69.29 -7.34" stroke="#ffec99" stroke-width="0.5" fill="none"></path><path fill="#ffd43b" d="M -1.97,2.12 Q -1.97,2.12 -2.04,-1.18 -2.11,-2.37 -2.11,-3.64 -2.10,-4.91 -2.00,-6.16 -1.90,-7.42 -1.66,-8.91 -1.43,-10.41 -1.26,-11.95 -1.09,-13.50 -0.85,-15.31 -0.60,-17.13 -0.38,-19.10 -0.16,-21.08 -0.01,-23.14 0.13,-25.20 0.22,-27.50 0.32,-29.80 0.32,-32.30 0.33,-34.80 0.00,-37.32 -0.32,-39.84 -0.86,-42.51 -1.40,-45.18 -1.97,-47.43 -2.55,-49.68 -3.20,-52.07 -3.85,-54.45 -4.35,-56.38 -4.84,-58.30 -5.22,-60.09 -5.60,-61.88 -5.89,-63.11 -6.19,-64.33 -6.38,-65.44 -6.56,-66.56 -6.76,-67.90 -6.96,-69.24 -7.11,-70.54 -7.26,-71.84 -7.36,-73.04 -7.47,-74.24 -6.81,-75.64 -6.15,-77.05 -5.19,-77.67 -4.23,-78.29 -3.15,-78.52 -2.07,-78.76 -0.11,-78.22 1.83,-77.68 2.66,-77.00 3.49,-76.32 4.41,-75.35 5.33,-74.39 6.50,-72.98 7.67,-71.56 9.08,-69.73 10.49,-67.89 12.71,-65.10 14.93,-62.30 17.04,-59.52 19.14,-56.75 21.20,-53.87 23.26,-50.99 25.47,-47.92 27.68,-44.85 29.49,-42.42 31.29,-39.99 33.16,-37.66 35.04,-35.33 36.94,-33.16 38.84,-30.99 40.63,-29.19 42.42,-27.40 44.10,-25.94 45.78,-24.48 47.60,-23.10 49.42,-21.72 50.94,-20.70 52.46,-19.69 53.84,-18.83 55.22,-17.96 56.39,-17.38 57.56,-16.80 58.58,-16.28 59.61,-15.76 61.14,-15.14 62.68,-14.52 63.79,-14.10 64.90,-13.67 66.60,-13.12 68.30,-12.57 69.23,-11.88 70.16,-11.19 70.95,-10.21 71.74,-9.22 72.33,-8.10 72.93,-6.98 73.29,-5.82 73.65,-4.67 73.41,-3.50 73.17,-2.34 72.42,-1.48 71.67,-0.62 70.32,0.12 68.96,0.86 67.96,1.31 66.96,1.76 65.72,2.20 64.48,2.64 63.02,3.10 61.57,3.56 59.85,4.01 58.14,4.46 56.21,4.83 54.27,5.19 52.18,5.40 50.09,5.61 47.79,5.67 45.50,5.74 43.26,5.83 41.01,5.92 38.91,6.00 36.81,6.08 34.52,6.08 32.24,6.09 30.02,6.07 27.81,6.05 25.62,6.03 23.44,6.00 21.26,5.99 19.09,5.97 17.04,5.97 14.99,5.97 13.29,5.93 11.59,5.88 10.28,5.87 8.97,5.86 7.67,5.70 6.36,5.55 5.00,5.28 3.64,5.00 3.39,4.93 3.15,4.86 2.92,4.73 2.70,4.60 2.51,4.42 2.33,4.23 2.19,4.02 2.05,3.80 1.97,3.55 1.89,3.30 1.87,3.04 1.85,2.79 1.89,2.53 1.94,2.28 2.04,2.04 2.14,1.80 2.30,1.59 2.45,1.39 2.66,1.22 2.86,1.06 3.09,0.95 3.33,0.84 3.58,0.79 3.83,0.74 4.09,0.75 4.35,0.76 4.51,0.80 4.68,0.84 4.99,1.01 5.29,1.17 5.53,1.42 5.77,1.67 5.92,1.99 6.07,2.30 6.11,2.65 6.14,2.99 6.07,3.33 6.00,3.67 5.82,3.97 5.64,4.27 5.37,4.50 5.11,4.72 4.79,4.85 4.46,4.98 4.12,5.00 3.77,5.02 3.43,4.93 3.10,4.84 2.81,4.64 2.52,4.45 2.31,4.17 2.10,3.89 1.99,3.57 1.88,3.24 1.88,2.89 1.88,2.54 1.99,2.21 2.10,1.88 2.31,1.60 2.52,1.33 2.80,1.13 3.09,0.93 3.42,0.84 3.76,0.75 4.11,0.76 4.45,0.78 4.78,0.91 5.10,1.04 5.37,1.26 5.63,1.49 5.81,1.78 5.99,2.08 6.07,2.42 6.14,2.76 6.11,3.11 6.07,3.45 5.92,3.77 5.78,4.08 5.54,4.34 5.30,4.59 5.00,4.75 4.69,4.92 4.35,4.98 4.00,5.03 3.82,5.02 3.64,5.00 3.39,4.93 3.15,4.86 2.92,4.73 2.70,4.60 2.51,4.42 2.33,4.23 2.19,4.02 2.05,3.80 1.97,3.55 1.89,3.30 1.87,3.05 1.85,2.79 1.89,2.53 1.94,2.28 2.04,2.04 2.14,1.80 2.30,1.59 2.45,1.39 2.66,1.22 2.86,1.06 3.09,0.95 3.33,0.84 3.58,0.79 3.83,0.74 4.09,0.75 4.35,0.76 5.72,1.23 7.08,1.70 8.18,2.00 9.27,2.29 10.55,2.50 11.82,2.70 13.40,2.90 14.99,3.09 17.04,3.09 19.08,3.09 21.25,3.06 23.42,3.03 25.60,2.98 27.77,2.94 29.96,2.87 32.15,2.80 34.35,2.68 36.56,2.56 38.62,2.35 40.67,2.14 42.90,1.83 45.13,1.52 47.23,1.20 49.33,0.88 51.14,0.46 52.96,0.04 54.65,-0.51 56.34,-1.06 57.85,-1.66 59.36,-2.26 60.74,-2.88 62.13,-3.49 63.11,-3.90 64.09,-4.31 65.89,-5.21 67.70,-6.12 67.49,-5.04 67.27,-3.97 67.14,-5.08 67.01,-6.20 65.97,-7.24 64.93,-8.29 63.72,-8.79 62.52,-9.28 61.57,-9.87 60.62,-10.46 59.08,-11.42 57.55,-12.38 56.64,-13.04 55.72,-13.70 54.56,-14.50 53.39,-15.30 52.07,-16.29 50.75,-17.29 49.27,-18.42 47.78,-19.54 45.88,-20.96 43.98,-22.38 42.21,-23.89 40.43,-25.39 38.56,-27.23 36.68,-29.06 34.70,-31.25 32.72,-33.43 30.77,-35.76 28.81,-38.09 26.92,-40.48 25.03,-42.87 22.72,-45.86 20.41,-48.85 18.26,-51.57 16.10,-54.29 13.87,-56.86 11.63,-59.44 9.22,-61.99 6.82,-64.53 5.16,-66.06 3.50,-67.59 1.44,-69.51 -0.60,-71.43 -1.32,-72.44 -2.04,-73.44 -2.17,-72.29 -2.29,-71.14 -2.43,-69.72 -2.58,-68.29 -2.64,-66.59 -2.71,-64.88 -2.62,-63.65 -2.54,-62.43 -2.28,-60.71 -2.03,-58.98 -1.60,-57.09 -1.17,-55.20 -0.48,-52.81 0.19,-50.41 0.82,-48.10 1.45,-45.79 2.06,-43.03 2.67,-40.28 3.10,-37.57 3.52,-34.86 3.62,-32.31 3.72,-29.76 3.77,-27.42 3.81,-25.09 3.84,-22.95 3.87,-20.80 3.82,-18.74 3.76,-16.68 3.63,-14.86 3.50,-13.04 3.35,-11.34 3.20,-9.64 2.95,-8.25 2.71,-6.85 2.53,-5.77 2.34,-4.69 2.23,-3.53 2.11,-2.37 2.04,-1.18 1.97,-2.12 1.94,0.23 1.91,0.47 1.83,0.69 1.75,0.91 1.61,1.11 1.47,1.31 1.30,1.46 1.12,1.62 0.91,1.73 0.70,1.84 0.46,1.90 0.23,1.96 -0.00,1.96 -0.23,1.96 -0.46,1.90 -0.70,1.84 -0.91,1.73 -1.12,1.62 -1.30,1.46 -1.47,1.31 -1.61,1.11 -1.75,0.91 -1.83,0.69 -1.91,0.47 -1.94,0.23 -1.97,-0.00 -1.97,-0.00 L -1.97,2.12 Z"></path></g><g stroke-linecap="round"><g transform="translate(127.8353055991152 34.536823018428464) rotate(0 -11.174258370347331 22.34851674069472)"><path d="M0 0 C-3.72 7.45, -18.62 37.25, -22.35 44.7 M0 0 C-3.72 7.45, -18.62 37.25, -22.35 44.7" stroke="#ffd43b" stroke-width="1" fill="none"></path></g><g transform="translate(127.8353055991152 34.536823018428464) rotate(0 -11.174258370347331 22.34851674069472)"><path d="M-19.49 19.87 C-20.51 28.71, -21.53 37.56, -22.35 44.7 M-19.49 19.87 C-20.31 27.01, -21.13 34.14, -22.35 44.7" stroke="#ffd43b" stroke-width="1" fill="none"></path></g><g transform="translate(127.8353055991152 34.536823018428464) rotate(0 -11.174258370347331 22.34851674069472)"><path d="M-4.2 27.52 C-10.67 33.64, -17.13 39.75, -22.35 44.7 M-4.2 27.52 C-9.42 32.46, -14.63 37.39, -22.35 44.7" stroke="#ffd43b" stroke-width="1" fill="none"></path></g></g><mask></mask><g transform="translate(119.16955420986625 16.29313588316748) rotate(0 97.125 10)"><text x="0" y="0" font-family="Virgil, Segoe UI Emoji" font-size="16px" fill="#ffd43b" text-anchor="start" style="white-space: pre;" direction="ltr" dominant-baseline="text-before-edge">Excedente do consumidor</text></g></svg>